<svg xmlns="http://www.w3.org/2000/svg" xmlns:xlink="http://www.w3.org/1999/xlink" width="41" zoomAndPan="magnify" viewBox="0 0 30.75 30.000001" height="40" preserveAspectRatio="xMidYMid meet" version="1.0"><defs><clipPath id="9b7f051b99"><path d="M 6.542969 5.804688 L 23.964844 5.804688 L 23.964844 23.226562 L 6.542969 23.226562 Z M 6.542969 5.804688 " clip-rule="nonzero"/></clipPath></defs><g clip-path="url(#9b7f051b99)"><path fill="#5fb7e5" d="M 15.253906 5.804688 C 10.453125 5.804688 6.542969 9.714844 6.542969 14.515625 C 6.542969 19.320312 10.453125 23.226562 15.253906 23.226562 C 20.054688 23.226562 23.964844 19.320312 23.964844 14.515625 C 23.964844 9.714844 20.054688 5.804688 15.253906 5.804688 Z M 15.253906 22.136719 C 11.050781 22.136719 7.632812 18.71875 7.632812 14.515625 C 7.632812 10.3125 11.050781 6.894531 15.253906 6.894531 C 19.457031 6.894531 22.875 10.3125 22.875 14.515625 C 22.875 18.71875 19.457031 22.136719 15.253906 22.136719 Z M 18.828125 17.175781 C 18.722656 17.320312 18.558594 17.398438 18.390625 17.398438 C 18.277344 17.398438 18.164062 17.363281 18.066406 17.289062 L 14.929688 14.953125 C 14.789062 14.851562 14.710938 14.6875 14.710938 14.515625 L 14.710938 9.535156 C 14.710938 9.234375 14.953125 8.992188 15.253906 8.992188 C 15.554688 8.992188 15.796875 9.234375 15.796875 9.535156 L 15.796875 14.242188 L 18.71875 16.414062 C 18.957031 16.59375 19.007812 16.9375 18.828125 17.175781 Z M 18.828125 17.175781 " fill-opacity="1" fill-rule="nonzero"/></g></svg>