<svg xmlns="http://www.w3.org/2000/svg" xmlns:xlink="http://www.w3.org/1999/xlink" width="41" zoomAndPan="magnify" viewBox="0 0 30.75 30.000001" height="40" preserveAspectRatio="xMidYMid meet" version="1.0"><defs><clipPath id="671d7ae324"><path d="M 6.617188 5.878906 L 24 5.878906 L 24 23.296875 L 6.617188 23.296875 Z M 6.617188 5.878906 " clip-rule="nonzero"/></clipPath></defs><g clip-path="url(#671d7ae324)"><path fill="#5fb7e5" d="M 10.933594 5.878906 C 10.59375 5.878906 10.316406 6.15625 10.316406 6.496094 L 10.316406 7.113281 L 8.523438 7.113281 C 7.476562 7.113281 6.617188 7.972656 6.617188 9.019531 L 6.617188 21.242188 C 6.617188 22.289062 7.476562 23.152344 8.523438 23.152344 L 21.980469 23.152344 C 23.027344 23.152344 23.890625 22.289062 23.890625 21.242188 L 23.890625 9.019531 C 23.890625 7.972656 23.027344 7.113281 21.980469 7.113281 L 20.1875 7.113281 L 20.1875 6.496094 C 20.1875 6.15625 19.910156 5.878906 19.570312 5.878906 C 19.230469 5.878906 18.953125 6.15625 18.953125 6.496094 L 18.953125 7.113281 L 11.550781 7.113281 L 11.550781 6.496094 C 11.550781 6.15625 11.277344 5.878906 10.933594 5.878906 Z M 8.523438 8.347656 L 10.316406 8.347656 L 10.316406 9.171875 C 10.316406 9.511719 10.59375 9.789062 10.933594 9.789062 C 11.277344 9.789062 11.550781 9.511719 11.550781 9.171875 L 11.550781 8.347656 L 18.953125 8.347656 L 18.953125 9.171875 C 18.953125 9.511719 19.230469 9.789062 19.570312 9.789062 C 19.910156 9.789062 20.1875 9.511719 20.1875 9.171875 L 20.1875 8.347656 L 21.980469 8.347656 C 22.363281 8.347656 22.65625 8.640625 22.65625 9.019531 L 22.65625 11.429688 L 7.851562 11.429688 L 7.851562 9.019531 C 7.851562 8.640625 8.144531 8.347656 8.523438 8.347656 Z M 7.851562 12.664062 L 22.65625 12.664062 L 22.65625 21.242188 C 22.65625 21.625 22.363281 21.917969 21.980469 21.917969 L 8.523438 21.917969 C 8.144531 21.917969 7.851562 21.625 7.851562 21.242188 Z M 7.851562 12.664062 " fill-opacity="1" fill-rule="nonzero"/></g></svg>