<svg xmlns="http://www.w3.org/2000/svg" xmlns:xlink="http://www.w3.org/1999/xlink" width="1366" zoomAndPan="magnify" viewBox="0 0 1024.5 576" height="768" preserveAspectRatio="xMidYMid meet" version="1.0"><defs><filter x="0%" y="0%" width="100%" height="100%" id="d9414d3cce"><feColorMatrix values="0 0 0 0 1 0 0 0 0 1 0 0 0 0 1 0 0 0 1 0" color-interpolation-filters="sRGB"/></filter><clipPath id="ca96d17795"><path d="M 0 0.140625 L 1024 0.140625 L 1024 575.859375 L 0 575.859375 Z M 0 0.140625 " clip-rule="nonzero"/></clipPath><clipPath id="83e1f3a431"><path d="M 0 0.140625 L 706 0.140625 L 706 575.859375 L 0 575.859375 Z M 0 0.140625 " clip-rule="nonzero"/></clipPath><mask id="fdb13139d3"><g filter="url(#d9414d3cce)"><rect x="-102.45" width="1229.4" fill="#000000" y="-57.6" height="691.2" fill-opacity="0.25"/></g></mask><clipPath id="0165edf309"><path d="M 0 229 L 382 229 L 382 575.859375 L 0 575.859375 Z M 0 229 " clip-rule="nonzero"/></clipPath><clipPath id="99e685f6f5"><path d="M 0 266 L 346 266 L 346 575.859375 L 0 575.859375 Z M 0 266 " clip-rule="nonzero"/></clipPath><clipPath id="60bceee6f5"><path d="M 339 463 L 546 463 L 546 575.859375 L 339 575.859375 Z M 339 463 " clip-rule="nonzero"/></clipPath><clipPath id="64f817e8b7"><path d="M 318 240 L 705.40625 240 L 705.40625 575.859375 L 318 575.859375 Z M 318 240 " clip-rule="nonzero"/></clipPath><clipPath id="e1d74c12aa"><path d="M 0 0.140625 L 148 0.140625 L 148 208 L 0 208 Z M 0 0.140625 " clip-rule="nonzero"/></clipPath><clipPath id="e62ddae3bd"><rect x="0" width="706" y="0" height="576"/></clipPath><clipPath id="31a914dc6e"><path d="M 957 34 L 1023.992188 34 L 1023.992188 122 L 957 122 Z M 957 34 " clip-rule="nonzero"/></clipPath><clipPath id="25d5dfbdd2"><path d="M 948 82 L 1023.992188 82 L 1023.992188 230 L 948 230 Z M 948 82 " clip-rule="nonzero"/></clipPath><clipPath id="c708513f9e"><path d="M 906 0.28125 L 964 0.28125 L 964 35 L 906 35 Z M 906 0.28125 " clip-rule="nonzero"/></clipPath><clipPath id="db199a2f20"><path d="M 891 0.28125 L 979 0.28125 L 979 50 L 891 50 Z M 891 0.28125 " clip-rule="nonzero"/></clipPath><clipPath id="96f41e5bd2"><path d="M 865.070312 59 L 928 59 L 928 122 L 865.070312 122 Z M 865.070312 59 " clip-rule="nonzero"/></clipPath><clipPath id="1c4158c61a"><path d="M 0 437 L 153 437 L 153 575.710938 L 0 575.710938 Z M 0 437 " clip-rule="nonzero"/></clipPath><clipPath id="91b84b0f9a"><path d="M 0 451 L 138 451 L 138 575.710938 L 0 575.710938 Z M 0 451 " clip-rule="nonzero"/></clipPath><clipPath id="120d68d8b3"><path d="M 135 530 L 219 530 L 219 575.710938 L 135 575.710938 Z M 135 530 " clip-rule="nonzero"/></clipPath><clipPath id="50b3f46a36"><path d="M 127 441 L 281.863281 441 L 281.863281 575.710938 L 127 575.710938 Z M 127 441 " clip-rule="nonzero"/></clipPath><clipPath id="0cb6bd75be"><path d="M 0 345.570312 L 60 345.570312 L 60 429 L 0 429 Z M 0 345.570312 " clip-rule="nonzero"/></clipPath></defs><g clip-path="url(#ca96d17795)"><path fill="#ffffff" d="M 0 0.140625 L 1024 0.140625 L 1024 575.859375 L 0 575.859375 Z M 0 0.140625 " fill-opacity="1" fill-rule="nonzero"/><path fill="#ffffff" d="M 0 0.140625 L 1024 0.140625 L 1024 575.859375 L 0 575.859375 Z M 0 0.140625 " fill-opacity="1" fill-rule="nonzero"/></g><g clip-path="url(#83e1f3a431)"><g mask="url(#fdb13139d3)"><g transform="matrix(1, 0, 0, 1, 0, -0.000000000000058398)"><g clip-path="url(#e62ddae3bd)"><g clip-path="url(#0165edf309)"><path fill="#0d5087" d="M 367.421875 452.769531 L 227.253906 312.621094 L 219.144531 304.519531 L 158.496094 243.875 C 157.355469 242.734375 156.164062 241.652344 154.917969 240.628906 C 153.671875 239.609375 152.375 238.648438 151.035156 237.753906 C 149.695312 236.855469 148.3125 236.027344 146.890625 235.269531 C 145.46875 234.507812 144.011719 233.820312 142.523438 233.203125 C 141.03125 232.585938 139.515625 232.042969 137.972656 231.574219 C 136.429688 231.105469 134.867188 230.714844 133.285156 230.398438 C 131.703125 230.085938 130.109375 229.847656 128.503906 229.691406 C 126.898438 229.535156 125.289062 229.453125 123.675781 229.453125 C 122.0625 229.453125 120.453125 229.535156 118.851562 229.691406 C 117.246094 229.847656 115.652344 230.085938 114.070312 230.398438 C 112.488281 230.714844 110.925781 231.105469 109.382812 231.574219 C 107.839844 232.042969 106.320312 232.585938 104.832031 233.203125 C 103.339844 233.820312 101.886719 234.507812 100.460938 235.269531 C 99.039062 236.027344 97.660156 236.855469 96.316406 237.753906 C 94.976562 238.648438 93.683594 239.609375 92.4375 240.628906 C 91.1875 241.652344 89.996094 242.734375 88.855469 243.875 L 0 332.71875 L 0 358.679688 L 101.835938 256.859375 C 102.550781 256.144531 103.300781 255.464844 104.082031 254.824219 C 104.863281 254.179688 105.675781 253.578125 106.515625 253.015625 C 107.359375 252.453125 108.222656 251.933594 109.117188 251.457031 C 110.007812 250.980469 110.921875 250.550781 111.855469 250.164062 C 112.789062 249.773438 113.742188 249.433594 114.710938 249.140625 C 115.675781 248.847656 116.65625 248.601562 117.648438 248.40625 C 118.640625 248.207031 119.640625 248.058594 120.648438 247.960938 C 121.65625 247.859375 122.664062 247.8125 123.675781 247.8125 C 124.6875 247.8125 125.695312 247.859375 126.703125 247.960938 C 127.710938 248.058594 128.707031 248.207031 129.699219 248.40625 C 130.691406 248.601562 131.671875 248.847656 132.640625 249.140625 C 133.609375 249.433594 134.558594 249.773438 135.496094 250.164062 C 136.429688 250.550781 137.34375 250.980469 138.234375 251.457031 C 139.125 251.933594 139.992188 252.453125 140.832031 253.015625 C 141.675781 253.578125 142.484375 254.179688 143.269531 254.824219 C 144.050781 255.464844 144.796875 256.144531 145.511719 256.859375 L 187.890625 299.226562 L 209.808594 321.144531 L 217.03125 328.355469 L 354.449219 465.753906 C 355.164062 466.46875 355.839844 467.21875 356.480469 468 C 357.125 468.78125 357.726562 469.59375 358.285156 470.433594 C 358.847656 471.277344 359.367188 472.140625 359.84375 473.035156 C 360.320312 473.925781 360.753906 474.839844 361.140625 475.773438 C 361.527344 476.707031 361.867188 477.660156 362.160156 478.625 C 362.453125 479.59375 362.699219 480.574219 362.894531 481.566406 C 363.09375 482.558594 363.242188 483.554688 363.339844 484.5625 C 363.4375 485.570312 363.488281 486.578125 363.488281 487.589844 C 363.488281 488.601562 363.4375 489.609375 363.339844 490.617188 C 363.242188 491.621094 363.09375 492.621094 362.894531 493.613281 C 362.699219 494.605469 362.453125 495.585938 362.160156 496.550781 C 361.867188 497.519531 361.527344 498.472656 361.140625 499.40625 C 360.753906 500.339844 360.320312 501.253906 359.84375 502.144531 C 359.367188 503.035156 358.847656 503.902344 358.285156 504.742188 C 357.726562 505.585938 357.125 506.394531 356.480469 507.175781 C 355.839844 507.960938 355.164062 508.707031 354.449219 509.421875 L 288.230469 575.625 L 314.195312 575.625 L 367.421875 522.40625 C 386.652344 503.175781 386.652344 471.996094 367.421875 452.769531 Z M 367.421875 452.769531 " fill-opacity="1" fill-rule="nonzero"/></g><g clip-path="url(#99e685f6f5)"><path fill="#0d5087" d="M 345.121094 487.589844 C 345.136719 489.25 344.824219 490.851562 344.1875 492.386719 C 343.550781 493.921875 342.640625 495.273438 341.453125 496.4375 L 262.257812 575.625 L 0 575.625 L 0 384.644531 L 114.820312 269.839844 C 115.402344 269.257812 116.035156 268.738281 116.71875 268.285156 C 117.402344 267.828125 118.125 267.441406 118.882812 267.125 C 119.644531 266.8125 120.425781 266.574219 121.234375 266.414062 C 122.039062 266.253906 122.851562 266.171875 123.675781 266.171875 C 124.496094 266.171875 125.3125 266.253906 126.117188 266.414062 C 126.925781 266.574219 127.707031 266.8125 128.46875 267.125 C 129.226562 267.441406 129.949219 267.828125 130.632812 268.285156 C 131.316406 268.738281 131.949219 269.257812 132.527344 269.839844 L 174.914062 312.21875 L 182.125 319.429688 L 196.828125 334.128906 L 204.039062 341.339844 L 341.453125 478.734375 C 342.640625 479.902344 343.550781 481.253906 344.1875 482.789062 C 344.824219 484.324219 345.136719 485.925781 345.121094 487.589844 Z M 345.121094 487.589844 " fill-opacity="1" fill-rule="nonzero"/></g><g clip-path="url(#60bceee6f5)"><path fill="#0d5087" d="M 545.691406 567.269531 C 545.699219 568.042969 545.554688 568.792969 545.257812 569.507812 C 544.957031 570.226562 544.53125 570.855469 543.976562 571.402344 L 539.746094 575.632812 L 344.945312 575.632812 L 340.710938 571.402344 C 340.441406 571.128906 340.199219 570.835938 339.984375 570.515625 C 339.773438 570.195312 339.59375 569.859375 339.445312 569.503906 C 339.300781 569.152344 339.1875 568.785156 339.113281 568.410156 C 339.039062 568.035156 339 567.652344 339 567.269531 C 339 566.886719 339.039062 566.507812 339.113281 566.132812 C 339.1875 565.753906 339.300781 565.390625 339.445312 565.035156 C 339.59375 564.679688 339.773438 564.34375 339.984375 564.027344 C 340.199219 563.707031 340.441406 563.410156 340.710938 563.140625 L 438.214844 465.648438 C 438.484375 465.378906 438.78125 465.136719 439.101562 464.921875 C 439.417969 464.710938 439.757812 464.53125 440.109375 464.382812 C 440.464844 464.238281 440.828125 464.128906 441.207031 464.050781 C 441.582031 463.976562 441.960938 463.941406 442.347656 463.941406 C 442.730469 463.941406 443.109375 463.976562 443.484375 464.050781 C 443.863281 464.128906 444.226562 464.238281 444.582031 464.382812 C 444.9375 464.53125 445.273438 464.710938 445.589844 464.921875 C 445.910156 465.136719 446.207031 465.378906 446.476562 465.648438 L 543.976562 563.140625 C 544.53125 563.683594 544.957031 564.3125 545.253906 565.03125 C 545.550781 565.746094 545.699219 566.492188 545.691406 567.269531 Z M 545.691406 567.269531 " fill-opacity="1" fill-rule="nonzero"/></g><path fill="#5fa4d3" d="M 287.191406 260.296875 C 286.269531 260.304688 285.488281 259.980469 284.839844 259.324219 L 229.363281 203.855469 C 229.050781 203.542969 228.8125 203.183594 228.644531 202.777344 C 228.472656 202.367188 228.390625 201.945312 228.390625 201.503906 C 228.390625 201.0625 228.472656 200.636719 228.644531 200.230469 C 228.8125 199.824219 229.050781 199.464844 229.363281 199.152344 L 284.84375 143.679688 C 285.15625 143.371094 285.515625 143.128906 285.921875 142.960938 C 286.328125 142.792969 286.753906 142.707031 287.195312 142.707031 C 287.636719 142.707031 288.058594 142.792969 288.46875 142.960938 C 288.875 143.128906 289.234375 143.371094 289.546875 143.679688 L 345.023438 199.152344 C 345.335938 199.464844 345.574219 199.824219 345.742188 200.230469 C 345.914062 200.636719 345.996094 201.0625 345.996094 201.503906 C 345.996094 201.945312 345.914062 202.367188 345.742188 202.773438 C 345.574219 203.183594 345.335938 203.542969 345.023438 203.855469 L 289.546875 259.324219 C 288.898438 259.980469 288.113281 260.304688 287.191406 260.296875 Z M 287.191406 260.296875 " fill-opacity="1" fill-rule="nonzero"/><path fill="#5fa4d3" d="M 216.769531 262.632812 L 104.089844 149.96875 L 40.460938 86.355469 C 38.300781 84.179688 35.949219 82.242188 33.402344 80.535156 C 30.855469 78.828125 28.167969 77.390625 25.335938 76.21875 C 22.503906 75.042969 19.585938 74.160156 16.578125 73.566406 C 13.574219 72.972656 10.539062 72.679688 7.472656 72.6875 C 4.964844 72.6875 2.476562 72.886719 0 73.285156 L 0 83.648438 C 2.464844 83.140625 4.957031 82.882812 7.472656 82.886719 C 9.867188 82.878906 12.238281 83.109375 14.589844 83.570312 C 16.9375 84.035156 19.21875 84.726562 21.429688 85.640625 C 23.640625 86.558594 25.742188 87.683594 27.730469 89.015625 C 29.722656 90.347656 31.558594 91.863281 33.25 93.5625 L 96.875 157.179688 L 209.558594 269.847656 C 211.257812 271.535156 212.773438 273.375 214.105469 275.363281 C 215.4375 277.351562 216.5625 279.453125 217.480469 281.664062 C 218.398438 283.875 219.085938 286.15625 219.550781 288.503906 C 220.015625 290.851562 220.246094 293.222656 220.238281 295.617188 C 220.242188 298.628906 219.878906 301.59375 219.152344 304.515625 C 218.363281 307.652344 217.179688 310.632812 215.59375 313.453125 C 214.011719 316.273438 212.082031 318.835938 209.808594 321.136719 C 209.730469 321.222656 209.648438 321.308594 209.574219 321.394531 L 196.839844 334.125 L 33.253906 497.6875 C 31.5625 499.378906 29.71875 500.890625 27.730469 502.21875 C 25.738281 503.546875 23.636719 504.671875 21.425781 505.585938 C 19.214844 506.5 16.933594 507.1875 14.585938 507.652344 C 12.238281 508.117188 9.867188 508.347656 7.472656 508.34375 C 4.953125 508.34375 2.464844 508.085938 0 507.570312 L 0 517.9375 C 2.476562 518.335938 4.964844 518.539062 7.472656 518.535156 C 10.535156 518.542969 13.570312 518.246094 16.574219 517.652344 C 19.578125 517.058594 22.496094 516.175781 25.328125 515.007812 C 28.15625 513.835938 30.847656 512.402344 33.394531 510.699219 C 35.941406 509 38.296875 507.066406 40.460938 504.898438 L 216.769531 328.609375 L 217.023438 328.355469 C 218.089844 327.273438 219.101562 326.140625 220.058594 324.957031 C 221.015625 323.773438 221.910156 322.550781 222.746094 321.28125 C 223.582031 320.007812 224.355469 318.703125 225.0625 317.355469 C 225.773438 316.011719 226.414062 314.636719 226.988281 313.226562 C 227.5625 311.820312 228.066406 310.386719 228.5 308.929688 C 228.933594 307.472656 229.292969 305.996094 229.582031 304.503906 C 229.875 303.011719 230.089844 301.507812 230.230469 299.996094 C 230.375 298.480469 230.441406 296.964844 230.4375 295.441406 C 230.429688 293.921875 230.351562 292.40625 230.195312 290.894531 C 230.042969 289.382812 229.816406 287.878906 229.515625 286.390625 C 229.214844 284.898438 228.839844 283.425781 228.394531 281.972656 C 227.949219 280.519531 227.4375 279.089844 226.851562 277.6875 C 226.265625 276.28125 225.613281 274.910156 224.894531 273.570312 C 224.175781 272.230469 223.394531 270.929688 222.550781 269.667969 C 221.703125 268.402344 220.796875 267.183594 219.832031 266.007812 C 218.867188 264.835938 217.847656 263.710938 216.769531 262.632812 Z M 216.769531 262.632812 " fill-opacity="1" fill-rule="nonzero"/><path fill="#5fa4d3" d="M 194.859375 284.546875 L 144.246094 233.941406 L 82.171875 171.875 L 18.550781 108.261719 C 17.089844 106.777344 15.398438 105.640625 13.476562 104.84375 C 11.554688 104.046875 9.554688 103.65625 7.472656 103.671875 C 4.820312 103.660156 2.328125 104.285156 0 105.554688 L 0 119.085938 L 3.605469 115.480469 C 4.113281 114.960938 4.703125 114.558594 5.375 114.28125 C 6.046875 114.003906 6.746094 113.871094 7.472656 113.882812 C 8.199219 113.871094 8.898438 114.003906 9.570312 114.28125 C 10.242188 114.5625 10.828125 114.960938 11.335938 115.484375 L 74.964844 179.101562 L 125.363281 229.484375 L 187.636719 291.757812 C 187.878906 292 188.097656 292.265625 188.292969 292.550781 C 188.484375 292.832031 188.648438 293.132812 188.785156 293.449219 C 188.921875 293.765625 189.027344 294.089844 189.101562 294.425781 C 189.179688 294.761719 189.21875 295.101562 189.230469 295.445312 C 189.242188 295.789062 189.222656 296.128906 189.167969 296.46875 C 189.113281 296.808594 189.027344 297.140625 188.914062 297.464844 C 188.796875 297.789062 188.652344 298.097656 188.476562 298.394531 C 188.300781 298.691406 188.101562 298.96875 187.875 299.226562 C 187.796875 299.316406 187.714844 299.40625 187.636719 299.488281 L 174.90625 312.21875 L 11.335938 475.773438 C 10.828125 476.296875 10.242188 476.695312 9.570312 476.972656 C 8.898438 477.253906 8.199219 477.386719 7.472656 477.375 C 6.746094 477.386719 6.046875 477.253906 5.375 476.972656 C 4.703125 476.695312 4.113281 476.296875 3.605469 475.773438 L 0 472.179688 L 0 485.707031 C 2.328125 486.976562 4.820312 487.605469 7.472656 487.589844 C 9.554688 487.605469 11.554688 487.214844 13.476562 486.417969 C 15.402344 485.621094 17.089844 484.480469 18.550781 482.996094 L 182.125 319.441406 L 194.859375 306.710938 L 195.109375 306.457031 C 195.808594 305.722656 196.429688 304.929688 196.976562 304.074219 C 197.523438 303.222656 197.980469 302.324219 198.351562 301.378906 C 198.722656 300.4375 199.003906 299.46875 199.183594 298.472656 C 199.367188 297.472656 199.453125 296.46875 199.445312 295.457031 C 199.433594 294.441406 199.324219 293.441406 199.117188 292.449219 C 198.910156 291.457031 198.613281 290.492188 198.21875 289.558594 C 197.824219 288.625 197.347656 287.738281 196.78125 286.894531 C 196.214844 286.054688 195.574219 285.273438 194.859375 284.558594 Z M 194.859375 284.546875 " fill-opacity="1" fill-rule="nonzero"/><g clip-path="url(#64f817e8b7)"><path fill="#5fa4d3" d="M 705.40625 551.558594 L 705.40625 575.625 L 578.117188 575.625 L 324.4375 321.980469 C 323.960938 321.503906 323.507812 321.003906 323.082031 320.484375 C 322.652344 319.964844 322.253906 319.421875 321.878906 318.863281 C 321.503906 318.300781 321.160156 317.726562 320.839844 317.128906 C 320.523438 316.535156 320.234375 315.929688 319.976562 315.304688 C 319.71875 314.683594 319.492188 314.050781 319.296875 313.40625 C 319.101562 312.761719 318.9375 312.109375 318.808594 311.445312 C 318.675781 310.785156 318.578125 310.121094 318.511719 309.449219 C 318.445312 308.78125 318.410156 308.109375 318.410156 307.433594 C 318.410156 306.761719 318.445312 306.089844 318.511719 305.417969 C 318.578125 304.746094 318.675781 304.082031 318.808594 303.421875 C 318.9375 302.757812 319.101562 302.105469 319.296875 301.460938 C 319.492188 300.816406 319.71875 300.183594 319.976562 299.5625 C 320.234375 298.9375 320.523438 298.332031 320.839844 297.738281 C 321.160156 297.140625 321.503906 296.566406 321.878906 296.003906 C 322.253906 295.445312 322.652344 294.90625 323.082031 294.382812 C 323.507812 293.863281 323.960938 293.363281 324.4375 292.886719 L 371.015625 246.3125 C 371.492188 245.835938 371.992188 245.382812 372.515625 244.957031 C 373.035156 244.527344 373.574219 244.128906 374.136719 243.753906 C 374.695312 243.378906 375.273438 243.03125 375.867188 242.714844 C 376.460938 242.398438 377.070312 242.109375 377.691406 241.851562 C 378.316406 241.59375 378.949219 241.367188 379.59375 241.171875 C 380.238281 240.976562 380.890625 240.8125 381.550781 240.679688 C 382.214844 240.550781 382.878906 240.453125 383.550781 240.386719 C 384.21875 240.320312 384.894531 240.285156 385.566406 240.285156 C 386.242188 240.285156 386.914062 240.320312 387.582031 240.386719 C 388.253906 240.453125 388.917969 240.550781 389.582031 240.679688 C 390.242188 240.8125 390.894531 240.976562 391.539062 241.171875 C 392.183594 241.367188 392.816406 241.59375 393.441406 241.851562 C 394.0625 242.109375 394.671875 242.398438 395.265625 242.714844 C 395.859375 243.03125 396.4375 243.378906 396.996094 243.753906 C 397.558594 244.128906 398.097656 244.527344 398.621094 244.957031 C 399.140625 245.382812 399.640625 245.835938 400.117188 246.3125 Z M 705.40625 551.558594 " fill-opacity="1" fill-rule="nonzero"/></g><g clip-path="url(#e1d74c12aa)"><path fill="#0d5087" d="M 147.972656 103.671875 C 147.980469 104.449219 147.832031 105.199219 147.535156 105.914062 C 147.238281 106.632812 146.8125 107.261719 146.257812 107.808594 L 96.878906 157.179688 L 74.96875 179.089844 L 48.761719 205.292969 C 48.488281 205.5625 48.195312 205.808594 47.875 206.019531 C 47.554688 206.234375 47.21875 206.414062 46.863281 206.5625 C 46.511719 206.707031 46.144531 206.820312 45.769531 206.894531 C 45.390625 206.96875 45.011719 207.007812 44.628906 207.007812 C 44.242188 207.007812 43.863281 206.96875 43.488281 206.894531 C 43.109375 206.820312 42.746094 206.707031 42.390625 206.5625 C 42.035156 206.414062 41.699219 206.234375 41.378906 206.019531 C 41.0625 205.808594 40.765625 205.5625 40.496094 205.292969 L 0 164.804688 L 0 42.550781 L 40.496094 2.054688 C 40.765625 1.78125 41.0625 1.539062 41.378906 1.328125 C 41.699219 1.113281 42.035156 0.933594 42.390625 0.785156 C 42.746094 0.640625 43.109375 0.527344 43.488281 0.453125 C 43.863281 0.378906 44.242188 0.339844 44.628906 0.339844 C 45.011719 0.339844 45.390625 0.378906 45.769531 0.453125 C 46.144531 0.527344 46.511719 0.640625 46.863281 0.785156 C 47.21875 0.933594 47.554688 1.113281 47.875 1.328125 C 48.195312 1.539062 48.488281 1.78125 48.761719 2.054688 L 146.253906 99.539062 C 146.808594 100.085938 147.234375 100.714844 147.535156 101.433594 C 147.832031 102.148438 147.980469 102.898438 147.972656 103.671875 Z M 147.972656 103.671875 " fill-opacity="1" fill-rule="nonzero"/></g><path fill="#0d5087" d="M 214.554688 168.171875 C 213.886719 168.179688 213.320312 167.945312 212.851562 167.46875 L 172.644531 127.265625 C 172.417969 127.039062 172.242188 126.777344 172.121094 126.484375 C 172 126.1875 171.9375 125.878906 171.9375 125.5625 C 171.9375 125.242188 172 124.933594 172.121094 124.640625 C 172.242188 124.34375 172.417969 124.082031 172.644531 123.859375 L 212.851562 83.65625 C 213.078125 83.429688 213.339844 83.253906 213.632812 83.132812 C 213.929688 83.011719 214.234375 82.949219 214.554688 82.949219 C 214.875 82.949219 215.183594 83.011719 215.476562 83.132812 C 215.773438 83.253906 216.03125 83.429688 216.257812 83.65625 L 256.464844 123.859375 C 256.691406 124.082031 256.867188 124.34375 256.988281 124.640625 C 257.109375 124.933594 257.171875 125.242188 257.171875 125.5625 C 257.171875 125.878906 257.109375 126.1875 256.988281 126.484375 C 256.867188 126.777344 256.691406 127.039062 256.464844 127.265625 L 216.257812 167.46875 C 215.792969 167.945312 215.222656 168.179688 214.554688 168.171875 Z M 214.554688 168.171875 " fill-opacity="1" fill-rule="nonzero"/></g></g></g></g><g clip-path="url(#31a914dc6e)"><path fill="#18537f" d="M 958.386719 44.746094 L 968.582031 35.871094 C 970.140625 34.519531 972.5625 34.757812 973.996094 36.40625 L 1016.878906 85.78125 L 1022.039062 91.726562 L 1023.976562 93.957031 L 1022.039062 95.765625 L 1022.039062 121.195312 C 1021.390625 121.253906 1020.765625 121.15625 1020.164062 120.910156 C 1019.5625 120.664062 1019.050781 120.292969 1018.628906 119.800781 L 1015.582031 116.289062 L 1008.628906 108.285156 L 1001.527344 100.109375 L 988.066406 84.613281 L 973.667969 68.035156 L 958.164062 50.183594 C 956.734375 48.535156 956.832031 46.097656 958.386719 44.746094 Z M 958.386719 44.746094 " fill-opacity="1" fill-rule="nonzero"/></g><path fill="#2b6490" d="M 974.625 154.519531 L 1015.582031 116.289062 L 1022.039062 110.257812 L 1022.039062 202.917969 L 1020.792969 204.078125 Z M 974.625 154.519531 " fill-opacity="1" fill-rule="nonzero"/><path fill="#80b5d6" d="M 974.625 154.519531 L 1015.582031 116.289062 L 1022.039062 110.257812 L 1022.039062 202.917969 L 1020.792969 204.078125 Z M 974.625 154.519531 " fill-opacity="1" fill-rule="nonzero"/><g clip-path="url(#25d5dfbdd2)"><path fill="#80b5d6" d="M 951.613281 161.234375 L 1012.496094 226.589844 C 1013.097656 227.230469 1013.765625 227.792969 1014.503906 228.269531 C 1015.242188 228.746094 1016.027344 229.125 1016.859375 229.40625 C 1017.695312 229.6875 1018.546875 229.863281 1019.425781 229.933594 C 1020.300781 230 1021.171875 229.960938 1022.039062 229.8125 L 1022.039062 217.410156 L 1020.269531 219.0625 L 959.652344 153.996094 L 1008.628906 108.285156 L 1022.039062 95.765625 L 1023.976562 93.957031 L 1022.039062 91.726562 L 1022.039062 82.746094 C 1020.285156 83.191406 1018.746094 84.035156 1017.421875 85.273438 L 1016.878906 85.78125 L 1001.527344 100.109375 L 952.136719 146.214844 C 951.628906 146.691406 951.167969 147.210938 950.761719 147.777344 C 950.355469 148.34375 950.007812 148.945312 949.71875 149.578125 C 949.429688 150.214844 949.203125 150.871094 949.042969 151.550781 C 948.882812 152.230469 948.792969 152.917969 948.769531 153.617188 C 948.742188 154.3125 948.789062 155.007812 948.898438 155.695312 C 949.011719 156.382812 949.191406 157.054688 949.433594 157.710938 C 949.679688 158.363281 949.984375 158.988281 950.351562 159.582031 C 950.71875 160.171875 951.140625 160.726562 951.613281 161.234375 Z M 951.613281 161.234375 " fill-opacity="1" fill-rule="nonzero"/></g><g clip-path="url(#c708513f9e)"><path fill="#18537f" d="M 906.730469 5.417969 L 912.230469 0.28125 L 956.496094 0.28125 L 963.113281 7.386719 L 933.9375 34.625 Z M 906.730469 5.417969 " fill-opacity="1" fill-rule="nonzero"/><path fill="#18537f" d="M 906.730469 5.417969 L 912.230469 0.28125 L 956.496094 0.28125 L 963.113281 7.386719 L 933.9375 34.625 Z M 906.730469 5.417969 " fill-opacity="1" fill-rule="nonzero"/></g><g clip-path="url(#db199a2f20)"><path fill="#18537f" d="M 893.167969 9.375 L 929.046875 47.886719 C 929.328125 48.1875 929.636719 48.457031 929.96875 48.699219 C 930.300781 48.9375 930.65625 49.144531 931.03125 49.3125 C 931.402344 49.484375 931.789062 49.617188 932.191406 49.710938 C 932.589844 49.804688 932.996094 49.859375 933.40625 49.871094 C 933.816406 49.886719 934.222656 49.859375 934.628906 49.792969 C 935.035156 49.726562 935.429688 49.625 935.816406 49.480469 C 936.199219 49.335938 936.566406 49.15625 936.917969 48.9375 C 937.265625 48.722656 937.589844 48.472656 937.890625 48.191406 L 976.363281 12.277344 C 976.664062 11.996094 976.933594 11.691406 977.171875 11.355469 C 977.414062 11.023438 977.617188 10.667969 977.789062 10.292969 C 977.960938 9.917969 978.089844 9.53125 978.183594 9.132812 C 978.28125 8.730469 978.332031 8.324219 978.347656 7.914062 C 978.363281 7.503906 978.335938 7.09375 978.269531 6.6875 C 978.203125 6.28125 978.097656 5.886719 977.953125 5.503906 C 977.808594 5.117188 977.628906 4.75 977.414062 4.398438 C 977.199219 4.050781 976.949219 3.726562 976.667969 3.425781 L 973.738281 0.28125 L 965.027344 0.28125 L 971.933594 7.695312 L 933.628906 43.453125 L 897.910156 5.109375 L 903.082031 0.28125 L 893.738281 0.28125 L 893.476562 0.523438 C 893.179688 0.804688 892.90625 1.109375 892.667969 1.445312 C 892.425781 1.777344 892.222656 2.132812 892.050781 2.507812 C 891.882812 2.878906 891.75 3.269531 891.65625 3.667969 C 891.5625 4.070312 891.507812 4.472656 891.492188 4.886719 C 891.476562 5.296875 891.503906 5.703125 891.570312 6.109375 C 891.636719 6.515625 891.742188 6.914062 891.882812 7.296875 C 892.027344 7.683594 892.207031 8.050781 892.425781 8.398438 C 892.640625 8.75 892.886719 9.074219 893.167969 9.375 Z M 893.167969 9.375 " fill-opacity="1" fill-rule="nonzero"/></g><path fill="#4699cc" d="M 991.910156 81.511719 L 978.441406 93.042969 C 978.226562 93.226562 977.988281 93.359375 977.722656 93.449219 C 977.457031 93.535156 977.183594 93.566406 976.90625 93.546875 C 976.625 93.523438 976.363281 93.449219 976.113281 93.320312 C 975.863281 93.195312 975.648438 93.023438 975.464844 92.8125 L 963.945312 79.328125 C 963.761719 79.113281 963.628906 78.875 963.542969 78.609375 C 963.453125 78.34375 963.421875 78.070312 963.445312 77.789062 C 963.464844 77.511719 963.539062 77.246094 963.667969 76.996094 C 963.792969 76.746094 963.964844 76.53125 964.175781 76.351562 L 977.648438 64.816406 C 977.859375 64.632812 978.101562 64.5 978.367188 64.414062 C 978.632812 64.328125 978.902344 64.292969 979.183594 64.316406 C 979.460938 64.335938 979.726562 64.410156 979.976562 64.539062 C 980.222656 64.664062 980.441406 64.835938 980.621094 65.046875 L 992.144531 78.535156 C 992.324219 78.746094 992.460938 78.988281 992.546875 79.253906 C 992.632812 79.519531 992.664062 79.792969 992.644531 80.070312 C 992.621094 80.351562 992.546875 80.613281 992.421875 80.863281 C 992.292969 81.113281 992.125 81.328125 991.910156 81.511719 Z M 991.910156 81.511719 " fill-opacity="1" fill-rule="nonzero"/><path fill="#4699cc" d="M 1015.300781 32.105469 L 999.597656 45.449219 C 999.351562 45.660156 999.070312 45.816406 998.761719 45.914062 C 998.453125 46.015625 998.136719 46.050781 997.8125 46.023438 C 997.488281 46 997.183594 45.910156 996.894531 45.761719 C 996.605469 45.613281 996.355469 45.414062 996.144531 45.167969 L 982.8125 29.449219 C 982.605469 29.203125 982.449219 28.921875 982.351562 28.613281 C 982.25 28.304688 982.214844 27.988281 982.238281 27.664062 C 982.265625 27.339844 982.355469 27.03125 982.503906 26.742188 C 982.652344 26.453125 982.847656 26.203125 983.097656 25.992188 L 998.796875 12.648438 C 999.046875 12.4375 999.324219 12.285156 999.632812 12.183594 C 999.941406 12.085938 1000.257812 12.046875 1000.582031 12.074219 C 1000.90625 12.101562 1001.214844 12.1875 1001.503906 12.335938 C 1001.792969 12.484375 1002.042969 12.683594 1002.25 12.933594 L 1015.582031 28.648438 C 1015.792969 28.898438 1015.945312 29.175781 1016.046875 29.484375 C 1016.144531 29.796875 1016.183594 30.113281 1016.15625 30.4375 C 1016.128906 30.761719 1016.042969 31.066406 1015.894531 31.355469 C 1015.746094 31.644531 1015.546875 31.894531 1015.300781 32.105469 Z M 1015.300781 32.105469 " fill-opacity="1" fill-rule="nonzero"/><path fill="#4699cc" d="M 958.179688 112.394531 L 931.304688 135.230469 C 931.09375 135.410156 930.871094 135.566406 930.628906 135.699219 C 930.386719 135.835938 930.136719 135.945312 929.875 136.027344 C 929.613281 136.113281 929.34375 136.171875 929.070312 136.203125 C 928.796875 136.234375 928.523438 136.238281 928.25 136.214844 C 927.976562 136.191406 927.707031 136.144531 927.441406 136.070312 C 927.175781 135.992188 926.921875 135.890625 926.675781 135.765625 C 926.429688 135.640625 926.199219 135.492188 925.984375 135.320312 C 925.769531 135.148438 925.570312 134.957031 925.394531 134.75 L 902.578125 107.847656 C 902.398438 107.636719 902.242188 107.410156 902.109375 107.167969 C 901.976562 106.929688 901.867188 106.675781 901.78125 106.414062 C 901.699219 106.152344 901.640625 105.882812 901.609375 105.609375 C 901.578125 105.335938 901.574219 105.0625 901.59375 104.789062 C 901.617188 104.511719 901.667969 104.242188 901.742188 103.976562 C 901.816406 103.714844 901.917969 103.457031 902.042969 103.210938 C 902.167969 102.96875 902.316406 102.738281 902.488281 102.519531 C 902.660156 102.304688 902.851562 102.109375 903.0625 101.929688 L 929.9375 79.089844 C 930.144531 78.910156 930.371094 78.753906 930.613281 78.621094 C 930.851562 78.488281 931.105469 78.378906 931.367188 78.292969 C 931.628906 78.210938 931.894531 78.152344 932.167969 78.121094 C 932.441406 78.089844 932.71875 78.082031 932.992188 78.105469 C 933.265625 78.128906 933.535156 78.179688 933.800781 78.253906 C 934.066406 78.328125 934.320312 78.429688 934.566406 78.554688 C 934.808594 78.679688 935.039062 78.832031 935.257812 79 C 935.472656 79.171875 935.667969 79.363281 935.847656 79.574219 L 958.664062 106.476562 C 958.839844 106.6875 958.996094 106.910156 959.132812 107.152344 C 959.265625 107.394531 959.375 107.644531 959.457031 107.90625 C 959.542969 108.167969 959.601562 108.4375 959.632812 108.710938 C 959.664062 108.984375 959.667969 109.257812 959.644531 109.535156 C 959.625 109.808594 959.574219 110.078125 959.5 110.34375 C 959.421875 110.609375 959.324219 110.863281 959.195312 111.109375 C 959.070312 111.355469 958.921875 111.585938 958.75 111.800781 C 958.582031 112.015625 958.390625 112.214844 958.179688 112.394531 Z M 958.179688 112.394531 " fill-opacity="1" fill-rule="nonzero"/><g clip-path="url(#96f41e5bd2)"><path fill="#80b5d6" d="M 866.28125 91.683594 L 891.277344 119.984375 C 891.472656 120.207031 891.6875 120.40625 891.921875 120.585938 C 892.15625 120.765625 892.40625 120.917969 892.671875 121.046875 C 892.933594 121.175781 893.210938 121.277344 893.496094 121.355469 C 893.78125 121.429688 894.070312 121.476562 894.363281 121.496094 C 894.65625 121.511719 894.949219 121.5 895.242188 121.460938 C 895.535156 121.421875 895.820312 121.355469 896.097656 121.257812 C 896.378906 121.164062 896.644531 121.039062 896.898438 120.890625 C 897.152344 120.742188 897.390625 120.570312 897.613281 120.375 L 906.511719 112.5 L 925.886719 95.359375 C 926.105469 95.164062 926.304688 94.949219 926.484375 94.714844 C 926.664062 94.480469 926.816406 94.230469 926.945312 93.964844 C 927.074219 93.699219 927.175781 93.425781 927.253906 93.140625 C 927.328125 92.855469 927.375 92.566406 927.390625 92.269531 C 927.410156 91.976562 927.398438 91.683594 927.359375 91.390625 C 927.320312 91.097656 927.253906 90.8125 927.15625 90.53125 C 927.0625 90.253906 926.9375 89.988281 926.789062 89.730469 C 926.640625 89.476562 926.46875 89.238281 926.273438 89.019531 L 922.839844 85.128906 L 901.285156 60.714844 C 901.089844 60.496094 900.875 60.296875 900.640625 60.117188 C 900.40625 59.9375 900.15625 59.785156 899.890625 59.652344 C 899.625 59.523438 899.351562 59.421875 899.066406 59.347656 C 898.78125 59.273438 898.492188 59.226562 898.195312 59.207031 C 897.902344 59.1875 897.609375 59.199219 897.316406 59.238281 C 897.027344 59.277344 896.742188 59.347656 896.460938 59.441406 C 896.183594 59.539062 895.917969 59.660156 895.660156 59.808594 C 895.40625 59.957031 895.167969 60.128906 894.949219 60.324219 L 866.671875 85.339844 C 866.453125 85.535156 866.253906 85.75 866.074219 85.988281 C 865.894531 86.222656 865.742188 86.472656 865.613281 86.738281 C 865.484375 87 865.378906 87.277344 865.304688 87.5625 C 865.230469 87.847656 865.183594 88.136719 865.164062 88.429688 C 865.148438 88.726562 865.15625 89.019531 865.195312 89.3125 C 865.238281 89.605469 865.304688 89.890625 865.398438 90.167969 C 865.496094 90.449219 865.617188 90.714844 865.765625 90.96875 C 865.914062 91.226562 866.085938 91.460938 866.28125 91.683594 Z M 897.910156 63.84375 L 919.335938 88.109375 L 922.757812 91.984375 L 903.535156 108.992188 L 894.640625 116.859375 L 869.792969 88.71875 Z M 897.910156 63.84375 " fill-opacity="1" fill-rule="nonzero"/></g><g clip-path="url(#1c4158c61a)"><path fill="#0d5087" d="M 146.8125 526.507812 L 90.804688 470.484375 L 87.566406 467.242188 L 63.332031 443.003906 C 62.875 442.546875 62.398438 442.113281 61.902344 441.703125 C 61.402344 441.296875 60.886719 440.914062 60.351562 440.554688 C 59.8125 440.195312 59.261719 439.863281 58.695312 439.5625 C 58.125 439.257812 57.542969 438.980469 56.949219 438.734375 C 56.351562 438.488281 55.746094 438.273438 55.128906 438.085938 C 54.511719 437.898438 53.890625 437.742188 53.257812 437.617188 C 52.625 437.488281 51.988281 437.394531 51.347656 437.332031 C 50.707031 437.269531 50.0625 437.238281 49.417969 437.238281 C 48.773438 437.238281 48.128906 437.269531 47.488281 437.332031 C 46.847656 437.394531 46.210938 437.488281 45.578125 437.617188 C 44.945312 437.742188 44.324219 437.898438 43.707031 438.085938 C 43.089844 438.273438 42.484375 438.488281 41.886719 438.734375 C 41.292969 438.980469 40.710938 439.257812 40.140625 439.5625 C 39.574219 439.863281 39.023438 440.195312 38.484375 440.554688 C 37.949219 440.914062 37.433594 441.296875 36.933594 441.703125 C 36.4375 442.113281 35.960938 442.546875 35.503906 443.003906 L 0 478.515625 L 0 488.894531 L 40.691406 448.191406 C 41.265625 447.617188 41.886719 447.105469 42.5625 446.65625 C 43.234375 446.207031 43.945312 445.824219 44.695312 445.515625 C 45.445312 445.203125 46.214844 444.972656 47.011719 444.8125 C 47.804688 444.65625 48.605469 444.574219 49.417969 444.574219 C 50.226562 444.574219 51.03125 444.65625 51.824219 444.8125 C 52.621094 444.972656 53.390625 445.203125 54.140625 445.515625 C 54.890625 445.824219 55.601562 446.207031 56.273438 446.65625 C 56.949219 447.105469 57.570312 447.617188 58.144531 448.191406 L 75.074219 465.128906 L 86.71875 476.773438 L 141.628906 531.699219 C 142.199219 532.269531 142.710938 532.894531 143.164062 533.570312 C 143.613281 534.242188 143.992188 534.953125 144.300781 535.703125 C 144.613281 536.453125 144.847656 537.222656 145.003906 538.019531 C 145.160156 538.8125 145.242188 539.617188 145.242188 540.425781 C 145.242188 541.238281 145.160156 542.039062 145.003906 542.835938 C 144.847656 543.628906 144.613281 544.402344 144.300781 545.148438 C 143.992188 545.898438 143.613281 546.609375 143.164062 547.285156 C 142.710938 547.957031 142.199219 548.582031 141.628906 549.15625 L 115.167969 575.617188 L 125.542969 575.617188 L 146.8125 554.34375 C 154.496094 546.65625 154.496094 534.195312 146.8125 526.507812 Z M 146.8125 526.507812 " fill-opacity="1" fill-rule="nonzero"/></g><g clip-path="url(#91b84b0f9a)"><path fill="#0d5087" d="M 137.902344 540.425781 C 137.90625 541.089844 137.785156 541.730469 137.527344 542.34375 C 137.273438 542.957031 136.910156 543.5 136.4375 543.964844 L 104.792969 575.617188 L 0 575.617188 L 0 499.273438 L 45.878906 453.382812 C 46.113281 453.148438 46.363281 452.941406 46.636719 452.757812 C 46.910156 452.578125 47.199219 452.421875 47.503906 452.296875 C 47.804688 452.171875 48.121094 452.074219 48.441406 452.011719 C 48.761719 451.949219 49.089844 451.914062 49.417969 451.914062 C 49.746094 451.914062 50.070312 451.949219 50.394531 452.011719 C 50.714844 452.074219 51.027344 452.171875 51.332031 452.296875 C 51.636719 452.421875 51.925781 452.578125 52.195312 452.757812 C 52.46875 452.941406 52.722656 453.148438 52.957031 453.382812 L 69.890625 470.320312 L 72.773438 473.207031 L 78.648438 479.082031 L 81.53125 481.960938 L 136.4375 536.886719 C 136.910156 537.351562 137.273438 537.894531 137.527344 538.507812 C 137.785156 539.121094 137.90625 539.761719 137.902344 540.425781 Z M 137.902344 540.425781 " fill-opacity="1" fill-rule="nonzero"/></g><g clip-path="url(#120d68d8b3)"><path fill="#0d5087" d="M 218.046875 572.277344 C 218.050781 572.925781 217.820312 573.476562 217.359375 573.929688 L 215.667969 575.621094 L 137.832031 575.621094 L 136.140625 573.929688 C 135.921875 573.710938 135.753906 573.457031 135.632812 573.171875 C 135.515625 572.886719 135.457031 572.589844 135.457031 572.277344 C 135.457031 571.96875 135.515625 571.671875 135.632812 571.386719 C 135.753906 571.097656 135.921875 570.847656 136.140625 570.628906 L 175.097656 531.65625 C 175.320312 531.4375 175.570312 531.269531 175.855469 531.148438 C 176.144531 531.03125 176.441406 530.972656 176.75 530.972656 C 177.058594 530.972656 177.359375 531.03125 177.644531 531.148438 C 177.929688 531.269531 178.183594 531.4375 178.402344 531.65625 L 217.359375 570.628906 C 217.820312 571.082031 218.050781 571.628906 218.046875 572.277344 Z M 218.046875 572.277344 " fill-opacity="1" fill-rule="nonzero"/></g><path fill="#5fa4d3" d="M 114.753906 449.566406 C 114.386719 449.570312 114.074219 449.441406 113.816406 449.175781 L 91.648438 427.003906 C 91.523438 426.878906 91.425781 426.734375 91.359375 426.574219 C 91.292969 426.410156 91.257812 426.238281 91.257812 426.0625 C 91.257812 425.886719 91.292969 425.71875 91.359375 425.554688 C 91.425781 425.390625 91.523438 425.25 91.648438 425.125 L 113.816406 402.949219 C 113.941406 402.824219 114.085938 402.730469 114.246094 402.660156 C 114.410156 402.59375 114.578125 402.558594 114.753906 402.558594 C 114.933594 402.558594 115.101562 402.59375 115.265625 402.660156 C 115.425781 402.730469 115.570312 402.824219 115.695312 402.949219 L 137.863281 425.125 C 137.988281 425.25 138.082031 425.390625 138.152344 425.554688 C 138.21875 425.71875 138.25 425.886719 138.25 426.0625 C 138.25 426.238281 138.21875 426.410156 138.152344 426.570312 C 138.082031 426.734375 137.988281 426.878906 137.863281 427.003906 L 115.695312 449.175781 C 115.4375 449.441406 115.125 449.570312 114.753906 449.566406 Z M 114.753906 449.566406 " fill-opacity="1" fill-rule="nonzero"/><path fill="#5fa4d3" d="M 86.617188 450.5 L 41.589844 405.464844 L 16.167969 380.03125 C 14.421875 378.277344 12.410156 376.929688 10.125 375.980469 C 7.839844 375.035156 5.460938 374.5625 2.984375 374.570312 C 1.984375 374.570312 0.988281 374.648438 0 374.808594 L 0 378.953125 C 0.984375 378.746094 1.980469 378.644531 2.984375 378.648438 C 4.917969 378.640625 6.777344 379.007812 8.5625 379.75 C 10.347656 380.488281 11.921875 381.542969 13.285156 382.914062 L 38.710938 408.347656 L 83.734375 453.382812 C 85.105469 454.746094 86.160156 456.320312 86.898438 458.109375 C 87.640625 459.894531 88.007812 461.753906 88.003906 463.6875 C 88.003906 464.890625 87.859375 466.074219 87.566406 467.242188 C 86.929688 469.796875 85.683594 472.011719 83.835938 473.886719 C 83.804688 473.921875 83.769531 473.957031 83.742188 473.988281 L 78.652344 479.078125 L 13.285156 544.464844 C 11.921875 545.828125 10.347656 546.882812 8.5625 547.621094 C 6.777344 548.359375 4.917969 548.726562 2.984375 548.722656 C 1.980469 548.722656 0.984375 548.621094 0 548.414062 L 0 552.558594 C 0.988281 552.71875 1.984375 552.796875 2.984375 552.796875 C 5.457031 552.800781 7.835938 552.332031 10.121094 551.386719 C 12.40625 550.441406 14.421875 549.09375 16.167969 547.347656 L 86.617188 476.875 L 86.71875 476.773438 C 87.144531 476.339844 87.546875 475.886719 87.929688 475.414062 C 88.3125 474.941406 88.667969 474.453125 89.003906 473.945312 C 89.339844 473.4375 89.648438 472.914062 89.929688 472.375 C 90.214844 471.839844 90.46875 471.289062 90.699219 470.726562 C 90.929688 470.164062 91.128906 469.589844 91.300781 469.007812 C 91.476562 468.425781 91.621094 467.835938 91.734375 467.238281 C 91.851562 466.640625 91.9375 466.039062 91.996094 465.433594 C 92.050781 464.832031 92.078125 464.222656 92.078125 463.617188 C 92.074219 463.007812 92.042969 462.402344 91.980469 461.796875 C 91.917969 461.191406 91.828125 460.59375 91.707031 459.996094 C 91.589844 459.402344 91.4375 458.8125 91.261719 458.230469 C 91.082031 457.648438 90.878906 457.078125 90.644531 456.519531 C 90.410156 455.957031 90.148438 455.410156 89.863281 454.871094 C 89.574219 454.335938 89.261719 453.816406 88.925781 453.3125 C 88.585938 452.808594 88.226562 452.320312 87.839844 451.851562 C 87.453125 451.378906 87.046875 450.929688 86.617188 450.5 Z M 86.617188 450.5 " fill-opacity="1" fill-rule="nonzero"/><path fill="#5fa4d3" d="M 77.859375 459.261719 L 57.636719 439.03125 L 32.832031 414.21875 L 7.410156 388.792969 C 6.828125 388.199219 6.152344 387.742188 5.386719 387.421875 C 4.617188 387.105469 3.816406 386.949219 2.984375 386.957031 C 1.925781 386.949219 0.929688 387.199219 0 387.707031 L 0 393.117188 L 1.441406 391.675781 C 1.863281 391.242188 2.378906 391.027344 2.984375 391.039062 C 3.59375 391.027344 4.105469 391.242188 4.53125 391.675781 L 29.953125 417.109375 L 50.089844 437.25 L 74.976562 462.144531 C 75.171875 462.339844 75.324219 462.566406 75.433594 462.820312 C 75.542969 463.074219 75.601562 463.339844 75.613281 463.617188 C 75.621094 463.894531 75.578125 464.164062 75.484375 464.425781 C 75.390625 464.683594 75.253906 464.921875 75.070312 465.128906 C 75.039062 465.164062 75.007812 465.199219 74.976562 465.234375 L 69.890625 470.320312 L 4.53125 535.703125 C 4.105469 536.140625 3.59375 536.351562 2.984375 536.34375 C 2.378906 536.351562 1.863281 536.140625 1.441406 535.703125 L 0 534.265625 L 0 539.675781 C 0.929688 540.183594 1.925781 540.433594 2.984375 540.425781 C 3.816406 540.433594 4.617188 540.277344 5.386719 539.957031 C 6.152344 539.640625 6.828125 539.183594 7.410156 538.589844 L 72.773438 473.210938 L 77.859375 468.121094 L 77.960938 468.019531 C 78.238281 467.726562 78.488281 467.410156 78.707031 467.066406 C 78.925781 466.726562 79.109375 466.367188 79.257812 465.988281 C 79.40625 465.613281 79.515625 465.226562 79.589844 464.828125 C 79.664062 464.429688 79.695312 464.027344 79.691406 463.621094 C 79.6875 463.214844 79.644531 462.816406 79.5625 462.417969 C 79.480469 462.023438 79.359375 461.636719 79.203125 461.265625 C 79.046875 460.890625 78.855469 460.535156 78.628906 460.199219 C 78.402344 459.863281 78.148438 459.550781 77.859375 459.265625 Z M 77.859375 459.261719 " fill-opacity="1" fill-rule="nonzero"/><g clip-path="url(#50b3f46a36)"><path fill="#5fa4d3" d="M 281.863281 566 L 281.863281 575.617188 L 231 575.617188 L 129.636719 474.222656 C 129.253906 473.84375 128.914062 473.425781 128.613281 472.976562 C 128.316406 472.527344 128.0625 472.054688 127.855469 471.554688 C 127.648438 471.058594 127.492188 470.542969 127.386719 470.011719 C 127.28125 469.484375 127.230469 468.949219 127.230469 468.410156 C 127.230469 467.871094 127.28125 467.335938 127.386719 466.804688 C 127.492188 466.277344 127.648438 465.761719 127.855469 465.261719 C 128.0625 464.761719 128.316406 464.289062 128.613281 463.839844 C 128.914062 463.390625 129.253906 462.976562 129.636719 462.59375 L 148.25 443.976562 C 148.632812 443.59375 149.046875 443.253906 149.496094 442.953125 C 149.945312 442.652344 150.417969 442.398438 150.917969 442.191406 C 151.414062 441.988281 151.929688 441.832031 152.457031 441.726562 C 152.988281 441.621094 153.523438 441.566406 154.0625 441.566406 C 154.601562 441.566406 155.136719 441.621094 155.667969 441.726562 C 156.195312 441.832031 156.710938 441.988281 157.207031 442.191406 C 157.707031 442.398438 158.179688 442.652344 158.628906 442.953125 C 159.078125 443.253906 159.496094 443.59375 159.875 443.976562 Z M 281.863281 566 " fill-opacity="1" fill-rule="nonzero"/></g><g clip-path="url(#0cb6bd75be)"><path fill="#0d5087" d="M 59.125 386.957031 C 59.132812 387.605469 58.902344 388.15625 58.441406 388.609375 L 38.710938 408.34375 L 32.835938 414.222656 L 29.957031 417.101562 L 19.484375 427.578125 C 19.265625 427.796875 19.011719 427.96875 18.726562 428.085938 C 18.441406 428.203125 18.140625 428.265625 17.832031 428.265625 C 17.523438 428.265625 17.222656 428.203125 16.9375 428.085938 C 16.652344 427.96875 16.398438 427.796875 16.179688 427.578125 L 0 411.394531 L 0 362.523438 L 16.179688 346.335938 C 16.398438 346.113281 16.652344 345.945312 16.9375 345.828125 C 17.222656 345.707031 17.523438 345.648438 17.832031 345.648438 C 18.140625 345.648438 18.441406 345.707031 18.726562 345.828125 C 19.011719 345.945312 19.265625 346.113281 19.484375 346.335938 L 58.441406 385.304688 C 58.902344 385.757812 59.132812 386.308594 59.125 386.957031 Z M 59.125 386.957031 " fill-opacity="1" fill-rule="nonzero"/></g><path fill="#0d5087" d="M 85.730469 412.738281 C 85.464844 412.742188 85.238281 412.648438 85.050781 412.457031 L 68.984375 396.386719 C 68.796875 396.199219 68.703125 395.972656 68.703125 395.707031 C 68.703125 395.441406 68.796875 395.214844 68.984375 395.023438 L 85.050781 378.953125 C 85.238281 378.765625 85.464844 378.671875 85.730469 378.671875 C 85.996094 378.671875 86.222656 378.765625 86.410156 378.953125 L 102.476562 395.023438 C 102.664062 395.214844 102.757812 395.441406 102.757812 395.707031 C 102.757812 395.972656 102.664062 396.199219 102.476562 396.386719 L 86.410156 412.457031 C 86.226562 412.648438 85.996094 412.742188 85.730469 412.738281 Z M 85.730469 412.738281 " fill-opacity="1" fill-rule="nonzero"/></svg>