<svg xmlns="http://www.w3.org/2000/svg" xmlns:xlink="http://www.w3.org/1999/xlink" width="1366" zoomAndPan="magnify" viewBox="0 0 1024.5 576" height="768" preserveAspectRatio="xMidYMid meet" version="1.0"><defs><filter x="0%" y="0%" width="100%" height="100%" id="16fbdda697"><feColorMatrix values="0 0 0 0 1 0 0 0 0 1 0 0 0 0 1 0 0 0 1 0" color-interpolation-filters="sRGB"/></filter><clipPath id="a1e66f5239"><path d="M 0 0.140625 L 1024 0.140625 L 1024 575.859375 L 0 575.859375 Z M 0 0.140625 " clip-rule="nonzero"/></clipPath><clipPath id="1ed5ac6001"><path d="M 0 188 L 503 188 L 503 575.859375 L 0 575.859375 Z M 0 188 " clip-rule="nonzero"/></clipPath><mask id="8a4c8a0e23"><g filter="url(#16fbdda697)"><rect x="-102.45" width="1229.4" fill="#000000" y="-57.6" height="691.2" fill-opacity="0.25"/></g></mask><clipPath id="b3f94e4c37"><path d="M 0 163 L 272 163 L 272 387.859375 L 0 387.859375 Z M 0 163 " clip-rule="nonzero"/></clipPath><clipPath id="4e306640f9"><path d="M 0 189 L 246 189 L 246 387.859375 L 0 387.859375 Z M 0 189 " clip-rule="nonzero"/></clipPath><clipPath id="b6764813b3"><path d="M 241 330 L 388 330 L 388 387.859375 L 241 387.859375 Z M 241 330 " clip-rule="nonzero"/></clipPath><clipPath id="aa2a2e387e"><path d="M 226 171 L 501.503906 171 L 501.503906 387.859375 L 226 387.859375 Z M 226 171 " clip-rule="nonzero"/></clipPath><clipPath id="26a022fd2a"><path d="M 0 0.277344 L 106 0.277344 L 106 148 L 0 148 Z M 0 0.277344 " clip-rule="nonzero"/></clipPath><clipPath id="a982b6adb2"><rect x="0" width="503" y="0" height="388"/></clipPath><clipPath id="7251b647b0"><path d="M 864 0.140625 L 1024 0.140625 L 1024 231 L 864 231 Z M 864 0.140625 " clip-rule="nonzero"/></clipPath><mask id="64122c62f7"><g filter="url(#16fbdda697)"><rect x="-102.45" width="1229.4" fill="#000000" y="-57.6" height="691.2" fill-opacity="0.75"/></g></mask><clipPath id="f71285b3bc"><path d="M 93 34 L 159.992188 34 L 159.992188 122 L 93 122 Z M 93 34 " clip-rule="nonzero"/></clipPath><clipPath id="95b6e3bb66"><path d="M 84 82 L 159.992188 82 L 159.992188 230 L 84 230 Z M 84 82 " clip-rule="nonzero"/></clipPath><clipPath id="928722d46f"><path d="M 42 0.28125 L 100 0.28125 L 100 35 L 42 35 Z M 42 0.28125 " clip-rule="nonzero"/></clipPath><clipPath id="1e344f5477"><path d="M 27 0.28125 L 115 0.28125 L 115 50 L 27 50 Z M 27 0.28125 " clip-rule="nonzero"/></clipPath><clipPath id="3617309379"><path d="M 1.070312 59 L 64 59 L 64 122 L 1.070312 122 Z M 1.070312 59 " clip-rule="nonzero"/></clipPath><clipPath id="a24dec239d"><rect x="0" width="160" y="0" height="231"/></clipPath><clipPath id="b4e757cf36"><path d="M 0 414 L 208 414 L 208 575.859375 L 0 575.859375 Z M 0 414 " clip-rule="nonzero"/></clipPath><mask id="cc92205970"><g filter="url(#16fbdda697)"><rect x="-102.45" width="1229.4" fill="#000000" y="-57.6" height="691.2" fill-opacity="0.75"/></g></mask><clipPath id="452fa59090"><path d="M 0 68 L 112 68 L 112 161.859375 L 0 161.859375 Z M 0 68 " clip-rule="nonzero"/></clipPath><clipPath id="e8ec1af563"><path d="M 0 78 L 102 78 L 102 161.859375 L 0 161.859375 Z M 0 78 " clip-rule="nonzero"/></clipPath><clipPath id="85027d7da6"><path d="M 99 136 L 161 136 L 161 161.859375 L 99 161.859375 Z M 99 136 " clip-rule="nonzero"/></clipPath><clipPath id="1a920e1b12"><path d="M 93 71 L 206.898438 71 L 206.898438 161.859375 L 93 161.859375 Z M 93 71 " clip-rule="nonzero"/></clipPath><clipPath id="e37f4dcd1a"><path d="M 0 0.832031 L 44 0.832031 L 44 62 L 0 62 Z M 0 0.832031 " clip-rule="nonzero"/></clipPath><clipPath id="9c9b4b21b3"><rect x="0" width="208" y="0" height="162"/></clipPath></defs><g clip-path="url(#a1e66f5239)"><path fill="#ffffff" d="M 0 0.140625 L 1024 0.140625 L 1024 575.859375 L 0 575.859375 Z M 0 0.140625 " fill-opacity="1" fill-rule="nonzero"/><path fill="#ffffff" d="M 0 0.140625 L 1024 0.140625 L 1024 575.859375 L 0 575.859375 Z M 0 0.140625 " fill-opacity="1" fill-rule="nonzero"/></g><g clip-path="url(#1ed5ac6001)"><g mask="url(#8a4c8a0e23)"><g transform="matrix(1, 0, 0, 1, 0, 188)"><g clip-path="url(#a982b6adb2)"><g clip-path="url(#b3f94e4c37)"><path fill="#0d5087" d="M 261.21875 322.070312 L 161.566406 222.433594 L 155.800781 216.671875 L 112.683594 173.558594 C 111.871094 172.75 111.023438 171.980469 110.136719 171.25 C 109.25 170.523438 108.332031 169.84375 107.378906 169.207031 C 106.425781 168.570312 105.441406 167.980469 104.429688 167.4375 C 103.417969 166.898438 102.382812 166.410156 101.324219 165.96875 C 100.265625 165.53125 99.1875 165.144531 98.089844 164.8125 C 96.992188 164.480469 95.882812 164.203125 94.757812 163.980469 C 93.632812 163.753906 92.5 163.585938 91.359375 163.476562 C 90.21875 163.363281 89.074219 163.304688 87.925781 163.304688 C 86.78125 163.304688 85.636719 163.363281 84.496094 163.472656 C 83.355469 163.585938 82.222656 163.753906 81.097656 163.980469 C 79.972656 164.203125 78.863281 164.480469 77.765625 164.8125 C 76.667969 165.144531 75.589844 165.53125 74.53125 165.96875 C 73.46875 166.410156 72.433594 166.898438 71.421875 167.4375 C 70.414062 167.980469 69.429688 168.570312 68.476562 169.207031 C 67.523438 169.84375 66.601562 170.523438 65.71875 171.25 C 64.832031 171.980469 63.980469 172.75 63.171875 173.558594 L 0 236.71875 L 0 255.175781 L 72.402344 182.789062 C 72.910156 182.28125 73.441406 181.796875 73.996094 181.339844 C 74.554688 180.886719 75.128906 180.457031 75.726562 180.058594 C 76.324219 179.65625 76.941406 179.289062 77.574219 178.949219 C 78.210938 178.609375 78.859375 178.304688 79.523438 178.027344 C 80.1875 177.753906 80.863281 177.511719 81.550781 177.300781 C 82.242188 177.09375 82.9375 176.917969 83.644531 176.777344 C 84.347656 176.636719 85.058594 176.53125 85.773438 176.460938 C 86.488281 176.390625 87.207031 176.355469 87.925781 176.355469 C 88.644531 176.355469 89.363281 176.390625 90.078125 176.460938 C 90.792969 176.53125 91.503906 176.636719 92.210938 176.777344 C 92.914062 176.917969 93.613281 177.09375 94.300781 177.300781 C 94.988281 177.511719 95.664062 177.753906 96.328125 178.027344 C 96.992188 178.304688 97.644531 178.609375 98.277344 178.949219 C 98.910156 179.289062 99.527344 179.65625 100.125 180.058594 C 100.722656 180.457031 101.300781 180.886719 101.855469 181.339844 C 102.410156 181.796875 102.945312 182.28125 103.453125 182.789062 L 133.578125 212.910156 L 138.710938 218.039062 L 149.164062 228.492188 L 154.296875 233.617188 L 251.992188 331.300781 C 252.5 331.808594 252.984375 332.339844 253.4375 332.898438 C 253.894531 333.453125 254.324219 334.03125 254.722656 334.628906 C 255.121094 335.226562 255.492188 335.839844 255.828125 336.476562 C 256.167969 337.109375 256.476562 337.757812 256.75 338.421875 C 257.023438 339.085938 257.265625 339.761719 257.476562 340.449219 C 257.683594 341.140625 257.859375 341.835938 258 342.539062 C 258.140625 343.246094 258.246094 343.957031 258.316406 344.671875 C 258.386719 345.386719 258.421875 346.105469 258.421875 346.824219 C 258.421875 347.542969 258.386719 348.257812 258.316406 348.972656 C 258.246094 349.691406 258.140625 350.398438 258 351.105469 C 257.859375 351.808594 257.683594 352.507812 257.476562 353.195312 C 257.265625 353.882812 257.023438 354.558594 256.75 355.222656 C 256.476562 355.886719 256.167969 356.535156 255.828125 357.171875 C 255.492188 357.804688 255.121094 358.421875 254.722656 359.019531 C 254.324219 359.617188 253.894531 360.191406 253.4375 360.75 C 252.984375 361.304688 252.5 361.835938 251.992188 362.34375 L 204.914062 409.410156 L 223.375 409.410156 L 261.21875 371.574219 C 274.886719 357.90625 274.886719 335.738281 261.21875 322.070312 Z M 261.21875 322.070312 " fill-opacity="1" fill-rule="nonzero"/></g><g clip-path="url(#4e306640f9)"><path fill="#0d5087" d="M 245.363281 346.824219 C 245.375 348.003906 245.152344 349.140625 244.699219 350.234375 C 244.246094 351.324219 243.597656 352.285156 242.753906 353.113281 L 186.453125 409.410156 L 0 409.410156 L 0 273.636719 L 81.632812 192.019531 C 82.046875 191.605469 82.496094 191.234375 82.980469 190.910156 C 83.464844 190.585938 83.980469 190.3125 84.519531 190.089844 C 85.058594 189.863281 85.617188 189.695312 86.191406 189.582031 C 86.761719 189.46875 87.34375 189.410156 87.925781 189.410156 C 88.511719 189.410156 89.089844 189.46875 89.664062 189.582031 C 90.238281 189.695312 90.792969 189.863281 91.332031 190.089844 C 91.875 190.3125 92.386719 190.585938 92.871094 190.910156 C 93.359375 191.234375 93.808594 191.605469 94.222656 192.019531 L 124.355469 222.144531 L 129.480469 227.273438 L 139.933594 237.722656 L 145.0625 242.847656 L 242.753906 340.527344 C 243.597656 341.355469 244.246094 342.316406 244.699219 343.410156 C 245.152344 344.503906 245.375 345.640625 245.363281 346.824219 Z M 245.363281 346.824219 " fill-opacity="1" fill-rule="nonzero"/></g><g clip-path="url(#b6764813b3)"><path fill="#0d5087" d="M 387.957031 403.46875 C 387.96875 404.621094 387.5625 405.601562 386.738281 406.40625 L 383.730469 409.417969 L 245.234375 409.417969 L 242.226562 406.40625 C 242.035156 406.214844 241.863281 406.003906 241.710938 405.777344 C 241.558594 405.550781 241.433594 405.3125 241.328125 405.058594 C 241.222656 404.808594 241.144531 404.546875 241.089844 404.28125 C 241.039062 404.015625 241.011719 403.742188 241.011719 403.472656 C 241.011719 403.199219 241.039062 402.929688 241.089844 402.660156 C 241.144531 402.394531 241.222656 402.132812 241.328125 401.882812 C 241.433594 401.628906 241.558594 401.390625 241.710938 401.164062 C 241.863281 400.9375 242.035156 400.726562 242.226562 400.535156 L 311.546875 331.226562 C 311.738281 331.03125 311.949219 330.859375 312.175781 330.710938 C 312.402344 330.558594 312.644531 330.429688 312.894531 330.324219 C 313.148438 330.222656 313.40625 330.144531 313.671875 330.089844 C 313.941406 330.035156 314.210938 330.011719 314.484375 330.011719 C 314.757812 330.011719 315.027344 330.035156 315.292969 330.089844 C 315.5625 330.144531 315.820312 330.222656 316.074219 330.324219 C 316.324219 330.429688 316.566406 330.558594 316.792969 330.710938 C 317.019531 330.859375 317.226562 331.03125 317.421875 331.226562 L 386.738281 400.535156 C 387.558594 401.339844 387.964844 402.320312 387.957031 403.46875 Z M 387.957031 403.46875 " fill-opacity="1" fill-rule="nonzero"/></g><path fill="#5fa4d3" d="M 204.179688 185.234375 C 203.523438 185.238281 202.964844 185.007812 202.507812 184.542969 L 163.066406 145.105469 C 162.84375 144.882812 162.671875 144.628906 162.550781 144.339844 C 162.433594 144.050781 162.371094 143.75 162.371094 143.433594 C 162.371094 143.121094 162.433594 142.820312 162.550781 142.53125 C 162.671875 142.238281 162.84375 141.984375 163.066406 141.761719 L 202.507812 102.328125 C 202.730469 102.105469 202.984375 101.933594 203.273438 101.816406 C 203.5625 101.695312 203.867188 101.636719 204.179688 101.636719 C 204.492188 101.636719 204.792969 101.695312 205.085938 101.816406 C 205.375 101.933594 205.628906 102.105469 205.851562 102.328125 L 245.292969 141.761719 C 245.515625 141.984375 245.683594 142.242188 245.804688 142.53125 C 245.925781 142.820312 245.984375 143.121094 245.984375 143.433594 C 245.984375 143.746094 245.925781 144.050781 245.804688 144.339844 C 245.683594 144.628906 245.515625 144.882812 245.292969 145.105469 L 205.851562 184.542969 C 205.390625 185.007812 204.832031 185.238281 204.179688 185.234375 Z M 204.179688 185.234375 " fill-opacity="1" fill-rule="nonzero"/><path fill="#5fa4d3" d="M 154.113281 186.894531 L 74.003906 106.796875 L 28.765625 61.570312 C 27.230469 60.027344 25.558594 58.648438 23.746094 57.433594 C 21.9375 56.222656 20.027344 55.199219 18.011719 54.363281 C 16 53.53125 13.925781 52.902344 11.785156 52.480469 C 9.648438 52.058594 7.492188 51.851562 5.3125 51.855469 C 3.53125 51.855469 1.757812 51.996094 0 52.28125 L 0 59.648438 C 1.753906 59.285156 3.523438 59.105469 5.3125 59.105469 C 7.015625 59.101562 8.703125 59.261719 10.371094 59.59375 C 12.042969 59.921875 13.664062 60.414062 15.234375 61.066406 C 16.808594 61.714844 18.300781 62.515625 19.714844 63.464844 C 21.128906 64.410156 22.4375 65.488281 23.636719 66.695312 L 68.875 111.925781 L 148.984375 192.023438 C 150.191406 193.222656 151.269531 194.53125 152.21875 195.945312 C 153.164062 197.359375 153.964844 198.851562 154.617188 200.421875 C 155.269531 201.996094 155.757812 203.617188 156.089844 205.285156 C 156.417969 206.957031 156.582031 208.640625 156.578125 210.34375 C 156.578125 212.484375 156.320312 214.59375 155.804688 216.667969 C 155.246094 218.898438 154.402344 221.019531 153.277344 223.023438 C 152.148438 225.027344 150.777344 226.851562 149.164062 228.488281 C 149.109375 228.546875 149.046875 228.609375 148.996094 228.667969 L 139.941406 237.71875 L 23.640625 354 C 22.4375 355.203125 21.128906 356.277344 19.714844 357.222656 C 18.296875 358.167969 16.804688 358.964844 15.230469 359.617188 C 13.660156 360.265625 12.039062 360.757812 10.371094 361.085938 C 8.699219 361.414062 7.015625 361.578125 5.3125 361.578125 C 3.523438 361.578125 1.75 361.394531 0 361.027344 L 0 368.398438 C 1.757812 368.683594 3.53125 368.824219 5.3125 368.824219 C 7.488281 368.828125 9.648438 368.617188 11.785156 368.195312 C 13.917969 367.773438 15.992188 367.148438 18.007812 366.316406 C 20.019531 365.484375 21.929688 364.464844 23.742188 363.253906 C 25.550781 362.042969 27.226562 360.667969 28.765625 359.128906 L 154.113281 233.800781 L 154.292969 233.617188 C 155.050781 232.847656 155.769531 232.042969 156.449219 231.203125 C 157.128906 230.363281 157.765625 229.492188 158.359375 228.585938 C 158.957031 227.683594 159.503906 226.753906 160.007812 225.800781 C 160.511719 224.84375 160.96875 223.863281 161.375 222.863281 C 161.785156 221.863281 162.140625 220.84375 162.449219 219.808594 C 162.757812 218.769531 163.015625 217.722656 163.222656 216.660156 C 163.425781 215.601562 163.582031 214.53125 163.683594 213.457031 C 163.785156 212.378906 163.832031 211.300781 163.828125 210.21875 C 163.824219 209.140625 163.765625 208.0625 163.65625 206.984375 C 163.546875 205.910156 163.386719 204.84375 163.171875 203.78125 C 162.957031 202.722656 162.691406 201.675781 162.378906 200.644531 C 162.0625 199.609375 161.695312 198.59375 161.277344 197.597656 C 160.863281 196.597656 160.398438 195.625 159.890625 194.671875 C 159.378906 193.71875 158.820312 192.792969 158.21875 191.894531 C 157.617188 190.996094 156.976562 190.128906 156.289062 189.292969 C 155.601562 188.460938 154.878906 187.660156 154.113281 186.894531 Z M 154.113281 186.894531 " fill-opacity="1" fill-rule="nonzero"/><path fill="#5fa4d3" d="M 138.535156 202.472656 L 102.550781 166.496094 L 58.417969 122.371094 L 13.1875 77.148438 C 12.152344 76.09375 10.949219 75.28125 9.582031 74.714844 C 8.214844 74.148438 6.792969 73.871094 5.3125 73.882812 C 3.425781 73.875 1.65625 74.320312 0 75.222656 L 0 84.84375 L 2.5625 82.277344 C 3.316406 81.503906 4.234375 81.125 5.3125 81.140625 C 6.390625 81.125 7.308594 81.503906 8.058594 82.28125 L 53.296875 127.507812 L 89.125 163.328125 L 133.398438 207.597656 C 133.75 207.949219 134.019531 208.347656 134.214844 208.800781 C 134.414062 209.253906 134.519531 209.726562 134.535156 210.222656 C 134.546875 210.714844 134.472656 211.191406 134.304688 211.65625 C 134.140625 212.121094 133.894531 212.539062 133.566406 212.910156 C 133.511719 212.972656 133.457031 213.035156 133.398438 213.097656 L 124.351562 222.144531 L 8.058594 338.425781 C 7.308594 339.199219 6.390625 339.578125 5.3125 339.5625 C 4.234375 339.578125 3.316406 339.199219 2.5625 338.425781 L 0 335.867188 L 0 345.484375 C 1.65625 346.390625 3.425781 346.835938 5.3125 346.824219 C 6.792969 346.835938 8.214844 346.558594 9.582031 345.988281 C 10.949219 345.421875 12.152344 344.613281 13.1875 343.558594 L 129.480469 227.28125 L 138.535156 218.230469 L 138.710938 218.050781 C 139.207031 217.527344 139.652344 216.964844 140.039062 216.355469 C 140.429688 215.75 140.753906 215.109375 141.019531 214.441406 C 141.28125 213.769531 141.480469 213.082031 141.609375 212.371094 C 141.742188 211.664062 141.800781 210.949219 141.792969 210.230469 C 141.785156 209.507812 141.707031 208.796875 141.5625 208.089844 C 141.414062 207.386719 141.203125 206.699219 140.921875 206.035156 C 140.644531 205.371094 140.300781 204.742188 139.902344 204.144531 C 139.5 203.542969 139.042969 202.992188 138.535156 202.480469 Z M 138.535156 202.472656 " fill-opacity="1" fill-rule="nonzero"/><g clip-path="url(#aa2a2e387e)"><path fill="#5fa4d3" d="M 501.503906 392.300781 L 501.503906 409.410156 L 411.011719 409.410156 L 230.65625 229.085938 C 229.976562 228.40625 229.371094 227.667969 228.839844 226.871094 C 228.304688 226.070312 227.855469 225.226562 227.488281 224.339844 C 227.121094 223.453125 226.839844 222.539062 226.65625 221.597656 C 226.46875 220.65625 226.375 219.703125 226.375 218.746094 C 226.375 217.785156 226.46875 216.832031 226.65625 215.890625 C 226.839844 214.949219 227.121094 214.035156 227.488281 213.148438 C 227.855469 212.261719 228.304688 211.417969 228.839844 210.621094 C 229.371094 209.820312 229.976562 209.082031 230.65625 208.402344 L 263.773438 175.289062 C 264.453125 174.613281 265.191406 174.003906 265.988281 173.472656 C 266.789062 172.9375 267.632812 172.488281 268.519531 172.121094 C 269.40625 171.753906 270.320312 171.476562 271.261719 171.289062 C 272.207031 171.101562 273.15625 171.007812 274.117188 171.007812 C 275.078125 171.007812 276.027344 171.101562 276.96875 171.289062 C 277.914062 171.476562 278.828125 171.753906 279.714844 172.121094 C 280.601562 172.488281 281.445312 172.9375 282.242188 173.472656 C 283.042969 174.003906 283.78125 174.613281 284.460938 175.289062 Z M 501.503906 392.300781 " fill-opacity="1" fill-rule="nonzero"/></g><g clip-path="url(#26a022fd2a)"><path fill="#0d5087" d="M 105.199219 73.882812 C 105.210938 75.035156 104.804688 76.015625 103.980469 76.824219 L 68.875 111.921875 L 58.425781 122.375 L 53.296875 127.5 L 34.664062 146.128906 C 34.472656 146.320312 34.261719 146.496094 34.035156 146.644531 C 33.808594 146.796875 33.570312 146.925781 33.316406 147.03125 C 33.066406 147.136719 32.804688 147.214844 32.539062 147.265625 C 32.269531 147.320312 32 147.347656 31.726562 147.347656 C 31.453125 147.347656 31.183594 147.320312 30.917969 147.265625 C 30.648438 147.214844 30.390625 147.136719 30.136719 147.03125 C 29.886719 146.925781 29.644531 146.796875 29.417969 146.644531 C 29.191406 146.496094 28.984375 146.320312 28.789062 146.128906 L 0 117.34375 L 0 30.429688 L 28.789062 1.640625 C 28.984375 1.445312 29.191406 1.273438 29.417969 1.121094 C 29.644531 0.972656 29.886719 0.84375 30.136719 0.738281 C 30.390625 0.632812 30.648438 0.554688 30.917969 0.5 C 31.183594 0.449219 31.453125 0.421875 31.726562 0.421875 C 32 0.421875 32.269531 0.449219 32.539062 0.5 C 32.804688 0.554688 33.066406 0.632812 33.316406 0.738281 C 33.570312 0.84375 33.808594 0.972656 34.035156 1.121094 C 34.261719 1.273438 34.472656 1.445312 34.664062 1.640625 L 103.980469 70.945312 C 104.800781 71.753906 105.210938 72.730469 105.199219 73.882812 Z M 105.199219 73.882812 " fill-opacity="1" fill-rule="nonzero"/></g><path fill="#0d5087" d="M 152.539062 119.738281 C 152.0625 119.742188 151.660156 119.578125 151.324219 119.238281 L 122.738281 90.65625 C 122.578125 90.496094 122.457031 90.308594 122.367188 90.101562 C 122.28125 89.890625 122.238281 89.671875 122.238281 89.445312 C 122.238281 89.21875 122.28125 89 122.367188 88.789062 C 122.457031 88.578125 122.578125 88.394531 122.738281 88.234375 L 151.324219 59.652344 C 151.488281 59.492188 151.671875 59.367188 151.882812 59.28125 C 152.089844 59.195312 152.308594 59.152344 152.535156 59.152344 C 152.765625 59.152344 152.984375 59.195312 153.191406 59.28125 C 153.402344 59.367188 153.585938 59.492188 153.75 59.652344 L 182.332031 88.234375 C 182.496094 88.394531 182.617188 88.578125 182.703125 88.789062 C 182.792969 89 182.835938 89.21875 182.835938 89.445312 C 182.835938 89.671875 182.792969 89.890625 182.703125 90.101562 C 182.617188 90.308594 182.496094 90.496094 182.332031 90.65625 L 153.75 119.238281 C 153.414062 119.574219 153.011719 119.742188 152.539062 119.738281 Z M 152.539062 119.738281 " fill-opacity="1" fill-rule="nonzero"/></g></g></g></g><g clip-path="url(#7251b647b0)"><g mask="url(#64122c62f7)"><g transform="matrix(1, 0, 0, 1, 864, -0.000000000000058398)"><g clip-path="url(#a24dec239d)"><g clip-path="url(#f71285b3bc)"><path fill="#18537f" d="M 94.386719 44.746094 L 104.582031 35.871094 C 106.140625 34.519531 108.5625 34.757812 109.996094 36.40625 L 152.878906 85.78125 L 158.039062 91.726562 L 159.976562 93.957031 L 158.039062 95.765625 L 158.039062 121.195312 C 157.390625 121.253906 156.765625 121.15625 156.164062 120.910156 C 155.5625 120.664062 155.050781 120.292969 154.628906 119.800781 L 151.582031 116.289062 L 144.628906 108.285156 L 137.527344 100.109375 L 124.066406 84.613281 L 109.667969 68.035156 L 94.164062 50.183594 C 92.734375 48.535156 92.832031 46.097656 94.386719 44.746094 Z M 94.386719 44.746094 " fill-opacity="1" fill-rule="nonzero"/></g><path fill="#2b6490" d="M 110.625 154.519531 L 151.582031 116.289062 L 158.039062 110.257812 L 158.039062 202.917969 L 156.792969 204.078125 Z M 110.625 154.519531 " fill-opacity="1" fill-rule="nonzero"/><path fill="#80b5d6" d="M 110.625 154.519531 L 151.582031 116.289062 L 158.039062 110.257812 L 158.039062 202.917969 L 156.792969 204.078125 Z M 110.625 154.519531 " fill-opacity="1" fill-rule="nonzero"/><g clip-path="url(#95b6e3bb66)"><path fill="#80b5d6" d="M 87.613281 161.234375 L 148.496094 226.589844 C 149.097656 227.230469 149.765625 227.792969 150.503906 228.269531 C 151.242188 228.746094 152.027344 229.125 152.859375 229.40625 C 153.695312 229.6875 154.546875 229.863281 155.425781 229.933594 C 156.300781 230 157.171875 229.960938 158.039062 229.8125 L 158.039062 217.410156 L 156.269531 219.0625 L 95.652344 153.996094 L 144.628906 108.285156 L 158.039062 95.765625 L 159.976562 93.957031 L 158.039062 91.726562 L 158.039062 82.746094 C 156.285156 83.191406 154.746094 84.035156 153.421875 85.273438 L 152.878906 85.78125 L 137.527344 100.109375 L 88.136719 146.214844 C 87.628906 146.691406 87.167969 147.210938 86.761719 147.777344 C 86.355469 148.34375 86.007812 148.945312 85.71875 149.578125 C 85.429688 150.214844 85.203125 150.871094 85.042969 151.550781 C 84.882812 152.230469 84.792969 152.917969 84.769531 153.617188 C 84.742188 154.3125 84.789062 155.007812 84.898438 155.695312 C 85.011719 156.382812 85.191406 157.054688 85.433594 157.710938 C 85.679688 158.363281 85.984375 158.988281 86.351562 159.582031 C 86.71875 160.171875 87.140625 160.726562 87.613281 161.234375 Z M 87.613281 161.234375 " fill-opacity="1" fill-rule="nonzero"/></g><g clip-path="url(#928722d46f)"><path fill="#18537f" d="M 42.730469 5.417969 L 48.230469 0.28125 L 92.496094 0.28125 L 99.113281 7.386719 L 69.9375 34.625 Z M 42.730469 5.417969 " fill-opacity="1" fill-rule="nonzero"/><path fill="#18537f" d="M 42.730469 5.417969 L 48.230469 0.28125 L 92.496094 0.28125 L 99.113281 7.386719 L 69.9375 34.625 Z M 42.730469 5.417969 " fill-opacity="1" fill-rule="nonzero"/></g><g clip-path="url(#1e344f5477)"><path fill="#18537f" d="M 29.167969 9.375 L 65.046875 47.886719 C 65.328125 48.1875 65.636719 48.457031 65.96875 48.699219 C 66.300781 48.9375 66.65625 49.144531 67.03125 49.3125 C 67.402344 49.484375 67.789062 49.617188 68.191406 49.710938 C 68.589844 49.804688 68.996094 49.859375 69.40625 49.871094 C 69.816406 49.886719 70.222656 49.859375 70.628906 49.792969 C 71.035156 49.726562 71.429688 49.625 71.816406 49.480469 C 72.199219 49.335938 72.566406 49.15625 72.917969 48.9375 C 73.265625 48.722656 73.589844 48.472656 73.890625 48.191406 L 112.363281 12.277344 C 112.664062 11.996094 112.933594 11.691406 113.171875 11.355469 C 113.414062 11.023438 113.617188 10.667969 113.789062 10.292969 C 113.960938 9.917969 114.089844 9.53125 114.183594 9.132812 C 114.28125 8.730469 114.332031 8.324219 114.347656 7.914062 C 114.363281 7.503906 114.335938 7.09375 114.269531 6.6875 C 114.203125 6.28125 114.097656 5.886719 113.953125 5.503906 C 113.808594 5.117188 113.628906 4.75 113.414062 4.398438 C 113.199219 4.050781 112.949219 3.726562 112.667969 3.425781 L 109.738281 0.28125 L 101.027344 0.28125 L 107.933594 7.695312 L 69.628906 43.453125 L 33.910156 5.109375 L 39.082031 0.28125 L 29.738281 0.28125 L 29.476562 0.523438 C 29.179688 0.804688 28.90625 1.109375 28.667969 1.445312 C 28.425781 1.777344 28.222656 2.132812 28.050781 2.507812 C 27.882812 2.878906 27.75 3.269531 27.65625 3.667969 C 27.558594 4.070312 27.507812 4.472656 27.492188 4.886719 C 27.476562 5.296875 27.503906 5.703125 27.570312 6.109375 C 27.636719 6.515625 27.742188 6.914062 27.882812 7.296875 C 28.027344 7.683594 28.207031 8.050781 28.425781 8.398438 C 28.640625 8.75 28.886719 9.074219 29.167969 9.375 Z M 29.167969 9.375 " fill-opacity="1" fill-rule="nonzero"/></g><path fill="#4699cc" d="M 127.910156 81.511719 L 114.441406 93.042969 C 114.226562 93.226562 113.988281 93.359375 113.722656 93.449219 C 113.457031 93.535156 113.183594 93.566406 112.90625 93.546875 C 112.625 93.523438 112.363281 93.449219 112.113281 93.320312 C 111.863281 93.195312 111.648438 93.023438 111.464844 92.8125 L 99.945312 79.328125 C 99.761719 79.113281 99.628906 78.875 99.542969 78.609375 C 99.453125 78.34375 99.421875 78.070312 99.445312 77.789062 C 99.464844 77.511719 99.539062 77.246094 99.667969 76.996094 C 99.792969 76.746094 99.964844 76.53125 100.175781 76.351562 L 113.648438 64.816406 C 113.859375 64.632812 114.101562 64.5 114.367188 64.414062 C 114.632812 64.328125 114.902344 64.292969 115.183594 64.316406 C 115.460938 64.335938 115.726562 64.410156 115.976562 64.539062 C 116.222656 64.664062 116.441406 64.835938 116.621094 65.046875 L 128.144531 78.535156 C 128.324219 78.746094 128.460938 78.988281 128.546875 79.253906 C 128.632812 79.519531 128.664062 79.792969 128.644531 80.070312 C 128.621094 80.351562 128.546875 80.613281 128.421875 80.863281 C 128.292969 81.113281 128.125 81.328125 127.910156 81.511719 Z M 127.910156 81.511719 " fill-opacity="1" fill-rule="nonzero"/><path fill="#4699cc" d="M 151.300781 32.105469 L 135.597656 45.449219 C 135.351562 45.660156 135.070312 45.816406 134.761719 45.914062 C 134.453125 46.015625 134.136719 46.050781 133.8125 46.023438 C 133.488281 46 133.183594 45.910156 132.894531 45.761719 C 132.605469 45.613281 132.355469 45.414062 132.144531 45.167969 L 118.8125 29.449219 C 118.605469 29.203125 118.449219 28.921875 118.351562 28.613281 C 118.25 28.304688 118.214844 27.988281 118.238281 27.664062 C 118.265625 27.339844 118.355469 27.03125 118.503906 26.742188 C 118.652344 26.453125 118.847656 26.203125 119.097656 25.992188 L 134.796875 12.648438 C 135.046875 12.4375 135.324219 12.285156 135.632812 12.183594 C 135.941406 12.085938 136.257812 12.046875 136.582031 12.074219 C 136.90625 12.101562 137.214844 12.1875 137.503906 12.335938 C 137.792969 12.484375 138.042969 12.683594 138.25 12.933594 L 151.582031 28.648438 C 151.792969 28.898438 151.945312 29.175781 152.046875 29.484375 C 152.144531 29.796875 152.183594 30.113281 152.15625 30.4375 C 152.128906 30.761719 152.042969 31.066406 151.894531 31.355469 C 151.746094 31.644531 151.546875 31.894531 151.300781 32.105469 Z M 151.300781 32.105469 " fill-opacity="1" fill-rule="nonzero"/><path fill="#4699cc" d="M 94.179688 112.394531 L 67.304688 135.230469 C 67.09375 135.410156 66.871094 135.566406 66.628906 135.699219 C 66.386719 135.835938 66.136719 135.945312 65.875 136.027344 C 65.613281 136.113281 65.34375 136.171875 65.070312 136.203125 C 64.796875 136.234375 64.523438 136.238281 64.25 136.214844 C 63.976562 136.191406 63.707031 136.144531 63.441406 136.070312 C 63.175781 135.992188 62.921875 135.890625 62.675781 135.765625 C 62.429688 135.640625 62.199219 135.492188 61.984375 135.320312 C 61.769531 135.148438 61.570312 134.957031 61.394531 134.75 L 38.578125 107.847656 C 38.398438 107.636719 38.242188 107.410156 38.109375 107.167969 C 37.976562 106.929688 37.867188 106.675781 37.78125 106.414062 C 37.699219 106.152344 37.640625 105.882812 37.609375 105.609375 C 37.578125 105.335938 37.574219 105.0625 37.59375 104.789062 C 37.617188 104.511719 37.667969 104.242188 37.742188 103.976562 C 37.816406 103.714844 37.917969 103.457031 38.042969 103.210938 C 38.167969 102.96875 38.316406 102.738281 38.488281 102.519531 C 38.660156 102.304688 38.851562 102.109375 39.0625 101.929688 L 65.9375 79.089844 C 66.144531 78.910156 66.371094 78.753906 66.613281 78.621094 C 66.851562 78.488281 67.105469 78.378906 67.367188 78.292969 C 67.628906 78.210938 67.894531 78.152344 68.167969 78.121094 C 68.441406 78.089844 68.71875 78.082031 68.992188 78.105469 C 69.265625 78.128906 69.535156 78.179688 69.800781 78.253906 C 70.066406 78.328125 70.320312 78.429688 70.566406 78.554688 C 70.808594 78.679688 71.039062 78.832031 71.257812 79 C 71.472656 79.171875 71.667969 79.363281 71.847656 79.574219 L 94.664062 106.476562 C 94.839844 106.6875 94.996094 106.910156 95.132812 107.152344 C 95.265625 107.394531 95.375 107.644531 95.457031 107.90625 C 95.542969 108.167969 95.601562 108.4375 95.632812 108.710938 C 95.664062 108.984375 95.667969 109.257812 95.644531 109.535156 C 95.625 109.808594 95.574219 110.078125 95.5 110.34375 C 95.421875 110.609375 95.324219 110.863281 95.195312 111.109375 C 95.070312 111.355469 94.921875 111.585938 94.75 111.800781 C 94.582031 112.015625 94.390625 112.214844 94.179688 112.394531 Z M 94.179688 112.394531 " fill-opacity="1" fill-rule="nonzero"/><g clip-path="url(#3617309379)"><path fill="#80b5d6" d="M 2.28125 91.683594 L 27.277344 119.984375 C 27.472656 120.207031 27.6875 120.40625 27.921875 120.585938 C 28.15625 120.765625 28.40625 120.917969 28.671875 121.046875 C 28.933594 121.175781 29.210938 121.277344 29.496094 121.355469 C 29.78125 121.429688 30.070312 121.476562 30.363281 121.496094 C 30.65625 121.511719 30.949219 121.5 31.242188 121.460938 C 31.535156 121.421875 31.820312 121.355469 32.097656 121.257812 C 32.378906 121.164062 32.644531 121.039062 32.898438 120.890625 C 33.152344 120.742188 33.390625 120.570312 33.613281 120.375 L 42.511719 112.5 L 61.886719 95.359375 C 62.105469 95.164062 62.304688 94.949219 62.484375 94.714844 C 62.664062 94.480469 62.816406 94.230469 62.945312 93.964844 C 63.074219 93.699219 63.175781 93.425781 63.253906 93.140625 C 63.328125 92.855469 63.375 92.566406 63.390625 92.269531 C 63.410156 91.976562 63.398438 91.683594 63.359375 91.390625 C 63.320312 91.097656 63.253906 90.8125 63.15625 90.53125 C 63.0625 90.253906 62.9375 89.988281 62.789062 89.730469 C 62.640625 89.476562 62.46875 89.238281 62.273438 89.019531 L 58.839844 85.128906 L 37.285156 60.714844 C 37.089844 60.496094 36.875 60.296875 36.640625 60.117188 C 36.40625 59.9375 36.15625 59.785156 35.890625 59.652344 C 35.625 59.523438 35.351562 59.421875 35.066406 59.347656 C 34.78125 59.273438 34.492188 59.226562 34.195312 59.207031 C 33.902344 59.1875 33.609375 59.199219 33.316406 59.238281 C 33.027344 59.277344 32.742188 59.347656 32.460938 59.441406 C 32.183594 59.539062 31.917969 59.660156 31.660156 59.808594 C 31.40625 59.957031 31.167969 60.128906 30.949219 60.324219 L 2.671875 85.339844 C 2.453125 85.535156 2.253906 85.75 2.074219 85.988281 C 1.894531 86.222656 1.742188 86.472656 1.613281 86.738281 C 1.484375 87 1.378906 87.277344 1.304688 87.5625 C 1.230469 87.847656 1.183594 88.136719 1.164062 88.429688 C 1.148438 88.726562 1.15625 89.019531 1.195312 89.3125 C 1.238281 89.605469 1.304688 89.890625 1.398438 90.167969 C 1.496094 90.449219 1.617188 90.714844 1.765625 90.96875 C 1.914062 91.226562 2.085938 91.460938 2.28125 91.683594 Z M 33.910156 63.84375 L 55.335938 88.109375 L 58.757812 91.984375 L 39.535156 108.992188 L 30.640625 116.859375 L 5.792969 88.71875 Z M 33.910156 63.84375 " fill-opacity="1" fill-rule="nonzero"/></g></g></g></g></g><g clip-path="url(#b4e757cf36)"><g mask="url(#cc92205970)"><g transform="matrix(1, 0, 0, 1, 0, 414)"><g clip-path="url(#9c9b4b21b3)"><g clip-path="url(#452fa59090)"><path fill="#0d5087" d="M 107.765625 133.4375 L 66.65625 92.378906 L 64.277344 90.003906 L 46.488281 72.238281 C 45.816406 71.570312 45.089844 70.972656 44.300781 70.445312 C 43.511719 69.917969 42.679688 69.472656 41.800781 69.113281 C 40.925781 68.75 40.023438 68.476562 39.09375 68.289062 C 38.164062 68.105469 37.222656 68.011719 36.273438 68.011719 C 35.328125 68.011719 34.386719 68.105469 33.457031 68.289062 C 32.527344 68.476562 31.625 68.75 30.746094 69.113281 C 29.871094 69.472656 29.039062 69.917969 28.25 70.445312 C 27.460938 70.972656 26.730469 71.570312 26.0625 72.238281 L 0 98.265625 L 0 105.871094 L 29.871094 76.042969 C 30.289062 75.621094 30.746094 75.246094 31.242188 74.917969 C 31.738281 74.585938 32.257812 74.308594 32.808594 74.082031 C 33.359375 73.851562 33.925781 73.679688 34.507812 73.566406 C 35.089844 73.449219 35.679688 73.390625 36.273438 73.390625 C 36.871094 73.390625 37.457031 73.449219 38.042969 73.566406 C 38.625 73.679688 39.191406 73.851562 39.742188 74.082031 C 40.289062 74.308594 40.8125 74.585938 41.308594 74.917969 C 41.800781 75.246094 42.257812 75.621094 42.679688 76.042969 L 55.109375 88.453125 L 57.226562 90.570312 L 61.539062 94.875 L 63.65625 96.988281 L 103.960938 137.242188 C 104.382812 137.664062 104.757812 138.121094 105.085938 138.613281 C 105.417969 139.105469 105.695312 139.628906 105.925781 140.175781 C 106.152344 140.726562 106.324219 141.292969 106.4375 141.875 C 106.554688 142.457031 106.613281 143.046875 106.613281 143.640625 C 106.613281 144.234375 106.554688 144.820312 106.4375 145.402344 C 106.324219 145.988281 106.152344 146.550781 105.925781 147.101562 C 105.695312 147.648438 105.417969 148.171875 105.085938 148.664062 C 104.757812 149.160156 104.382812 149.617188 103.960938 150.035156 L 84.539062 169.429688 L 92.15625 169.429688 L 107.765625 153.839844 C 113.40625 148.207031 113.40625 139.070312 107.765625 133.4375 Z M 107.765625 133.4375 " fill-opacity="1" fill-rule="nonzero"/></g><g clip-path="url(#e8ec1af563)"><path fill="#0d5087" d="M 101.226562 143.640625 C 101.234375 144.65625 100.875 145.519531 100.148438 146.230469 L 76.921875 169.429688 L 0 169.429688 L 0 113.480469 L 33.675781 79.84375 C 34.023438 79.5 34.417969 79.238281 34.867188 79.050781 C 35.320312 78.863281 35.789062 78.769531 36.273438 78.769531 C 36.761719 78.769531 37.230469 78.863281 37.679688 79.050781 C 38.128906 79.238281 38.527344 79.5 38.871094 79.84375 L 51.304688 92.261719 L 53.417969 94.375 L 57.730469 98.679688 L 59.847656 100.792969 L 100.148438 141.046875 C 100.875 141.757812 101.234375 142.621094 101.226562 143.640625 Z M 101.226562 143.640625 " fill-opacity="1" fill-rule="nonzero"/></g><g clip-path="url(#85027d7da6)"><path fill="#0d5087" d="M 160.054688 166.984375 C 160.058594 167.457031 159.890625 167.859375 159.550781 168.195312 L 158.308594 169.433594 L 101.171875 169.433594 L 99.933594 168.195312 C 99.773438 168.03125 99.648438 167.847656 99.5625 167.636719 C 99.472656 167.429688 99.429688 167.210938 99.429688 166.984375 C 99.429688 166.757812 99.472656 166.539062 99.5625 166.328125 C 99.648438 166.117188 99.773438 165.933594 99.933594 165.773438 L 128.53125 137.210938 C 128.691406 137.050781 128.875 136.925781 129.085938 136.839844 C 129.296875 136.753906 129.515625 136.710938 129.742188 136.710938 C 129.96875 136.710938 130.1875 136.753906 130.398438 136.839844 C 130.609375 136.925781 130.792969 137.050781 130.953125 137.210938 L 159.550781 165.773438 C 159.890625 166.105469 160.058594 166.507812 160.054688 166.984375 Z M 160.054688 166.984375 " fill-opacity="1" fill-rule="nonzero"/></g><path fill="#5fa4d3" d="M 84.234375 77.050781 C 83.964844 77.050781 83.734375 76.957031 83.546875 76.765625 L 67.273438 60.511719 C 67.082031 60.324219 66.988281 60.09375 66.988281 59.824219 C 66.988281 59.554688 67.082031 59.324219 67.273438 59.136719 L 83.546875 42.882812 C 83.734375 42.695312 83.964844 42.597656 84.234375 42.597656 C 84.503906 42.597656 84.734375 42.695312 84.925781 42.882812 L 101.195312 59.136719 C 101.386719 59.324219 101.484375 59.554688 101.484375 59.824219 C 101.484375 60.09375 101.386719 60.324219 101.195312 60.511719 L 84.925781 76.765625 C 84.734375 76.957031 84.503906 77.050781 84.234375 77.050781 Z M 84.234375 77.050781 " fill-opacity="1" fill-rule="nonzero"/><path fill="#5fa4d3" d="M 63.578125 77.734375 L 30.53125 44.726562 L 11.867188 26.089844 C 10.585938 24.804688 9.109375 23.8125 7.429688 23.121094 C 5.753906 22.425781 4.007812 22.082031 2.191406 22.085938 C 1.457031 22.085938 0.726562 22.144531 0 22.261719 L 0 25.296875 C 0.722656 25.148438 1.453125 25.074219 2.191406 25.074219 C 3.609375 25.070312 4.976562 25.339844 6.285156 25.882812 C 7.597656 26.421875 8.75 27.195312 9.75 28.199219 L 28.414062 46.839844 L 61.464844 79.847656 C 62.46875 80.847656 63.246094 82 63.789062 83.308594 C 64.332031 84.617188 64.601562 85.980469 64.597656 87.398438 C 64.597656 88.277344 64.492188 89.148438 64.277344 90.003906 C 63.808594 91.875 62.894531 93.5 61.539062 94.875 C 61.515625 94.898438 61.492188 94.921875 61.46875 94.949219 L 57.734375 98.679688 L 9.753906 146.597656 C 8.75 147.597656 7.59375 148.371094 6.285156 148.910156 C 4.972656 149.453125 3.609375 149.722656 2.191406 149.71875 C 1.453125 149.71875 0.722656 149.644531 0 149.492188 L 0 152.53125 C 0.726562 152.648438 1.457031 152.707031 2.191406 152.707031 C 4.007812 152.707031 5.75 152.363281 7.429688 151.671875 C 9.105469 150.980469 10.585938 149.992188 11.867188 148.710938 L 63.578125 97.0625 L 63.652344 96.988281 C 64.28125 96.351562 64.839844 95.660156 65.332031 94.914062 C 65.824219 94.167969 66.238281 93.382812 66.578125 92.554688 C 66.914062 91.730469 67.167969 90.878906 67.339844 90 C 67.507812 89.125 67.589844 88.238281 67.589844 87.347656 C 67.585938 86.453125 67.496094 85.570312 67.316406 84.695312 C 67.140625 83.816406 66.878906 82.96875 66.535156 82.144531 C 66.191406 81.320312 65.773438 80.535156 65.273438 79.792969 C 64.777344 79.050781 64.210938 78.367188 63.578125 77.734375 Z M 63.578125 77.734375 " fill-opacity="1" fill-rule="nonzero"/><path fill="#5fa4d3" d="M 57.152344 84.152344 L 42.308594 69.328125 L 24.101562 51.144531 L 5.441406 32.507812 C 5.011719 32.074219 4.515625 31.738281 3.953125 31.507812 C 3.390625 31.273438 2.800781 31.160156 2.191406 31.164062 C 1.414062 31.160156 0.683594 31.34375 0 31.714844 L 0 35.679688 L 1.058594 34.621094 C 1.367188 34.304688 1.746094 34.148438 2.191406 34.15625 C 2.636719 34.148438 3.015625 34.304688 3.324219 34.625 L 21.988281 53.261719 L 36.769531 68.023438 L 55.035156 86.265625 C 55.179688 86.410156 55.292969 86.574219 55.371094 86.761719 C 55.453125 86.949219 55.496094 87.144531 55.503906 87.347656 C 55.507812 87.550781 55.476562 87.746094 55.410156 87.9375 C 55.339844 88.128906 55.238281 88.300781 55.105469 88.453125 C 55.082031 88.480469 55.058594 88.507812 55.035156 88.53125 L 51.300781 92.261719 L 3.324219 140.179688 C 3.015625 140.496094 2.636719 140.652344 2.191406 140.648438 C 1.746094 140.652344 1.367188 140.496094 1.058594 140.179688 L 0 139.125 L 0 143.089844 C 0.683594 143.460938 1.414062 143.644531 2.191406 143.640625 C 2.800781 143.644531 3.390625 143.53125 3.953125 143.296875 C 4.515625 143.0625 5.011719 142.726562 5.441406 142.292969 L 53.417969 94.378906 L 57.152344 90.648438 L 57.226562 90.574219 C 57.429688 90.359375 57.613281 90.125 57.773438 89.875 C 57.933594 89.625 58.070312 89.363281 58.179688 89.085938 C 58.285156 88.808594 58.367188 88.523438 58.421875 88.234375 C 58.476562 87.941406 58.5 87.648438 58.496094 87.351562 C 58.496094 87.054688 58.460938 86.757812 58.402344 86.46875 C 58.339844 86.179688 58.253906 85.894531 58.136719 85.621094 C 58.023438 85.347656 57.882812 85.089844 57.71875 84.84375 C 57.550781 84.59375 57.363281 84.367188 57.152344 84.15625 Z M 57.152344 84.152344 " fill-opacity="1" fill-rule="nonzero"/><g clip-path="url(#1a920e1b12)"><path fill="#5fa4d3" d="M 206.898438 162.378906 L 206.898438 169.429688 L 169.566406 169.429688 L 95.160156 95.121094 C 94.878906 94.839844 94.628906 94.535156 94.410156 94.207031 C 94.1875 93.878906 94.003906 93.53125 93.851562 93.164062 C 93.699219 92.800781 93.585938 92.421875 93.507812 92.035156 C 93.429688 91.648438 93.390625 91.253906 93.390625 90.859375 C 93.390625 90.464844 93.429688 90.070312 93.507812 89.683594 C 93.585938 89.296875 93.699219 88.917969 93.851562 88.554688 C 94.003906 88.1875 94.1875 87.839844 94.410156 87.511719 C 94.628906 87.183594 94.878906 86.878906 95.160156 86.597656 L 108.820312 72.953125 C 109.101562 72.671875 109.40625 72.421875 109.734375 72.203125 C 110.066406 71.984375 110.414062 71.796875 110.777344 71.644531 C 111.144531 71.496094 111.523438 71.378906 111.910156 71.300781 C 112.300781 71.226562 112.691406 71.1875 113.089844 71.1875 C 113.484375 71.1875 113.878906 71.226562 114.265625 71.300781 C 114.65625 71.378906 115.03125 71.496094 115.398438 71.644531 C 115.765625 71.796875 116.113281 71.984375 116.441406 72.203125 C 116.769531 72.421875 117.074219 72.671875 117.355469 72.953125 Z M 206.898438 162.378906 " fill-opacity="1" fill-rule="nonzero"/></g><g clip-path="url(#e37f4dcd1a)"><path fill="#0d5087" d="M 43.402344 31.164062 C 43.40625 31.636719 43.238281 32.042969 42.898438 32.375 L 28.414062 46.839844 L 24.105469 51.144531 L 21.988281 53.257812 L 14.300781 60.933594 C 14.140625 61.09375 13.957031 61.21875 13.746094 61.304688 C 13.535156 61.394531 13.316406 61.4375 13.089844 61.4375 C 12.863281 61.4375 12.644531 61.394531 12.433594 61.304688 C 12.222656 61.21875 12.039062 61.09375 11.878906 60.933594 L 0 49.074219 L 0 13.257812 L 11.878906 1.390625 C 12.039062 1.230469 12.222656 1.109375 12.433594 1.019531 C 12.644531 0.933594 12.863281 0.890625 13.089844 0.890625 C 13.316406 0.890625 13.535156 0.933594 13.746094 1.019531 C 13.957031 1.109375 14.140625 1.230469 14.300781 1.390625 L 42.898438 29.953125 C 43.238281 30.285156 43.40625 30.6875 43.402344 31.164062 Z M 43.402344 31.164062 " fill-opacity="1" fill-rule="nonzero"/></g><path fill="#0d5087" d="M 62.929688 50.058594 C 62.734375 50.0625 62.566406 49.992188 62.429688 49.851562 L 50.636719 38.074219 C 50.5 37.9375 50.429688 37.769531 50.429688 37.574219 C 50.429688 37.382812 50.5 37.214844 50.636719 37.078125 L 62.429688 25.296875 C 62.570312 25.160156 62.734375 25.09375 62.929688 25.09375 C 63.125 25.09375 63.292969 25.160156 63.429688 25.296875 L 75.222656 37.078125 C 75.359375 37.214844 75.429688 37.382812 75.429688 37.574219 C 75.429688 37.769531 75.359375 37.9375 75.222656 38.074219 L 63.429688 49.851562 C 63.292969 49.992188 63.125 50.0625 62.929688 50.058594 Z M 62.929688 50.058594 " fill-opacity="1" fill-rule="nonzero"/></g></g></g></g></svg>